<?xml version="1.0" encoding="UTF-8"?>
<!DOCTYPE svg PUBLIC "-//W3C//DTD SVG 1.1//EN" "http://www.w3.org/Graphics/SVG/1.1/DTD/svg11.dtd">
<!-- Creator: CorelDRAW X6 -->
<svg xmlns="http://www.w3.org/2000/svg" xml:space="preserve" width="119.159mm" height="60.3154mm" version="1.1" style="shape-rendering:geometricPrecision; text-rendering:geometricPrecision; image-rendering:optimizeQuality; fill-rule:evenodd; clip-rule:evenodd"
viewBox="0 0 3153818 1596380"
 xmlns:xlink="http://www.w3.org/1999/xlink">
 <defs>
  <style type="text/css">
   <![CDATA[
    .fil5 {fill:none}
    .fil0 {fill:#2C324E}
    .fil6 {fill:#333A5D}
    .fil2 {fill:#D47227}
    .fil4 {fill:#DCDDDD}
    .fil7 {fill:#E62129}
    .fil1 {fill:#F08519}
    .fil3 {fill:#FEFEFE}
   ]]>
  </style>
    <clipPath id="id0">
     <path d="M3068543 813779c-33582,-12207 -69048,-5926 -95282,13628l225 701 79 233 154 468 71 238 646 2112 71 241 66 236 74 236 527 1895 66 238 66 241 0 0 61 238 64 238 429 1670 61 238 56 236 119 482 56 241c154,641 304,1278 442,1919l56 241 48 241 53 241 56 241 392 1935 50 241c3912,20176 2763,41511 -4364,62124 -6352,18376 -16751,34124 -29863,46638 11349,24307 32031,44364 59186,54234 53339,19387 111424,-7853 129742,-60832 18318,-52985 -10068,-111647 -63405,-131031z"/>
    </clipPath>
    <clipPath id="id1">
     <path d="M2897888 749789c-63082,-22926 -131785,9290 -153454,71959 -21666,62664 11913,132053 74995,154979 63087,22931 131785,-9287 153452,-71951 21669,-62669 -11902,-132055 -74992,-154987z"/>
    </clipPath>
 </defs>
 <g id="Layer_x0020_1">
  <metadata id="CorelCorpID_0Corel-Layer"/>
  <g id="_442885968">
   <path class="fil0" d="M851188 415284c-369802,4163 -609222,10849 -609222,18363 0,7437 233697,14028 595912,18228l191 -617 1175 -3525 1175 -3544 156 -463 154 -445c1810,-5317 3719,-10597 5722,-15856l172 -445 175 -461 172 -445 154 -463 175 -442 3351 -8536 175 -445 193 -461 172 -445z"/>
   <path class="fil0" d="M883282 1016372c-400645,4163 -659983,10828 -659983,18344 0,7649 268645,14411 681504,18575l-310 -482 -37 -77 -368 -580 -347 -558c-3409,-5471 -6723,-11002 -9960,-16571l-326 -577 -347 -580 -675 -1154 -328 -580 -328 -577c-2888,-4992 -5741,-10058 -8496,-15184z"/>
   <path class="fil1" d="M2986934 966360l0 20062c-99101,47998 -223103,128895 -315793,266083 -29294,43351 -43361,117512 -55923,149675 -41559,106305 -100062,183441 -259839,194198l-1401584 -8186c707323,-99961 588109,-207974 1202656,-262904 344960,-36848 279345,-116392 583739,-406383 11889,-12998 31245,-60922 81024,-71406l34177 2205c4928,40034 -59546,69074 -93300,100710 -93448,87511 -229306,246611 -221628,387369 52167,-118650 229778,-270294 363654,-360285 24890,-15801 49629,-16727 82816,-11137z"/>
   <path class="fil2" d="M2540761 1337104c52532,-118533 229725,-269772 363347,-359607 10171,-6453 20314,-10410 31020,-12479 -2954,8229 -1736,19355 -6207,29177 -990,2165 -5812,2880 -8051,4542 -166240,100716 -276945,215776 -332118,345127 -22897,53781 -50153,96841 -48287,-5786l296 -974z"/>
   <path class="fil2" d="M3060315 796903c-43396,-14800 -89221,-7268 -123117,16304l296 847 98 281 196 566 95 281 839 2562 87 283 93 291 87 283 688 2292 85 288 79 281 8 3 77 286 79 288 553 2019 77 286 77 294 148 577 79 288c193,773 386,1543 572,2326l61 288 71 291 69 291 64 288 513 2340 64 291c5058,24368 3570,50137 -5640,75021 -8205,22177 -21648,41183 -38584,56277 14663,29363 41389,53625 76477,65591 68910,23500 143963,-9293 167633,-73251 23667,-63955 -13014,-134856 -81924,-158356z"/>
   <path class="fil2" d="M2873800 730585c-78189,-27965 -163348,11262 -190204,87620 -26854,76350 14763,160918 92953,188883 78195,27968 163348,-11262 190201,-87614 26856,-76355 -14755,-160923 -92950,-188888z"/>
   <path class="fil1" d="M3068152 796888c-62854,-22846 -131298,9232 -152880,71655 -21581,62415 11878,131531 74733,154375 62854,22844 131298,-9234 152880,-71649 21581,-62423 -11878,-131537 -74733,-154381z"/>
   <path class="fil0" d="M2928254 958335c13639,29154 38123,51640 68389,62624 61396,22312 129266,-8769 150707,-70832 21364,-61854 -12021,-129409 -73243,-151665 -37104,-13488 -78909,-7747 -110598,15878l-9364 6974 4047 12410 1445 4989 1252 5222 347 1813c3486,17958 2234,36398 -3756,53681 -5280,15301 -14006,29019 -25718,40196l-8477 8094 4971 10616z"/>
   <path class="fil3" d="M3068543 813779c-33582,-12207 -69048,-5926 -95282,13628l225 701 79 233 154 468 71 238 646 2112 71 241 66 236 74 236 527 1895 66 238 66 241 0 0 61 238 64 238 429 1670 61 238 56 236 119 482 56 241c154,641 304,1278 442,1919l56 241 48 241 53 241 56 241 392 1935 50 241c3912,20176 2763,41511 -4364,62124 -6352,18376 -16751,34124 -29863,46638 11349,24307 32031,44364 59186,54234 53339,19387 111424,-7853 129742,-60832 18318,-52985 -10068,-111647 -63405,-131031z"/>
   <g style="clip-path:url(#id0)">
    <g>
     <path id="1" class="fil4" d="M3002920 812228c-10666,3372 -20711,8507 -29667,15184l233 699 74 236 161 463 74 236 641 2115 74 236 64 236 64 246 545 1890 64 246 64 236 0 0 53 236 77 236 426 1673 64 246 53 236 116 474 53 236c151,643 310,1286 450,1929l53 246 42 225 53 246 53 236 394 1948 53 236c3914,20173 2763,41506 -4359,62119 -6357,18371 -16754,34129 -29871,46638 11346,24310 32023,44370 59186,54242 23013,8364 46900,8041 68111,730 -11452,-69 -23140,-2083 -34595,-6249 -27150,-9862 -47837,-29921 -59183,-54234 13114,-12506 23513,-28254 29858,-46635 7136,-20613 8276,-41945 4372,-62119l-53 -246 -394 -1937 -53 -236 -53 -236 -56 -246 -53 -238c-138,-641 -288,-1284 -437,-1927l-53 -236 -116 -484 -66 -236 -53 -236 -437 -1673 -64 -236 -53 -236 0 0 -74 -246 -66 -236 -521 -1900 -74 -236 -64 -225 -77 -246 -648 -2115 -66 -236 -159 -474 -74 -225 -4084 -10375z"/>
    </g>
   </g>
   <path class="fil5" d="M3068543 813779c-33582,-12207 -69048,-5926 -95282,13628l225 701 79 233 154 468 71 238 646 2112 71 241 66 236 74 236 527 1895 66 238 66 241 0 0 61 238 64 238 429 1670 61 238 56 236 119 482 56 241c154,641 304,1278 442,1919l56 241 48 241 53 241 56 241 392 1935 50 241c3912,20176 2763,41511 -4364,62124 -6352,18376 -16751,34124 -29863,46638 11349,24307 32031,44364 59186,54234 53339,19387 111424,-7853 129742,-60832 18318,-52985 -10068,-111647 -63405,-131031z"/>
   <path class="fil0" d="M3063213 868934c-19435,-9539 -44303,1982 -55541,25729 -11238,23744 -4587,50727 14845,60266 5002,2454 10362,3510 15759,3327 283,-6881 273,-15065 -37,-24540 2993,3290 7599,10423 13829,21404 10568,-4478 20134,-13538 25991,-25919 11238,-23746 4592,-50727 -14845,-60266z"/>
   <path class="fil0" d="M3060370 874937c-16717,-8205 -38110,1704 -47779,22137 -9671,20433 -3957,43644 12768,51849 4161,2041 8607,2959 13091,2880 77,-5391 8,-11421 -212,-18088 2475,2721 6061,8080 10756,16076 9793,-3557 18778,-11651 24149,-23003 9668,-20427 3952,-43644 -12773,-51852z"/>
   <path class="fil0" d="M3052369 896103c-8250,-4049 -18808,842 -23580,10923 -4769,10081 -1951,21542 6304,25591 8247,4049 18805,-842 23577,-10923 4769,-10081 1951,-21536 -6302,-25591z"/>
   <path class="fil0" d="M3051504 893675c-8250,-4047 -18810,842 -23582,10923 -4769,10081 -1945,21539 6304,25586 8255,4049 18810,-842 23582,-10920 4769,-10081 1951,-21539 -6304,-25588z"/>
   <path class="fil3" d="M3048788 873854c-6230,-3060 -14210,635 -17815,8252 -3605,7615 -1472,16272 4761,19326 6236,3062 14210,-635 17815,-8250 3602,-7617 1472,-16275 -4761,-19329z"/>
   <path class="fil1" d="M2892161 729955c-74799,-27187 -156246,10987 -181930,85264 -25678,74275 14139,156519 88935,183706 74794,27182 156241,-10989 181922,-85264 25681,-74278 -14136,-156524 -88927,-183706z"/>
   <path class="fil0" d="M2903459 734470c-71027,-25819 -149608,10137 -174440,81950 -24755,71623 13948,149873 84841,175634 71049,25821 149608,-10134 174440,-81969 24757,-71620 -13967,-149852 -84841,-175615z"/>
   <path class="fil3" d="M2897888 749789c-63082,-22926 -131785,9290 -153454,71959 -21666,62664 11913,132053 74995,154979 63087,22931 131785,-9287 153452,-71951 21669,-62669 -11902,-132055 -74992,-154987z"/>
   <g style="clip-path:url(#id1)">
    <g>
     <path id="1" class="fil4" d="M2897891 749787c-63090,-22931 -131799,9287 -153467,71956 -21658,62672 11923,132053 75011,154984 27984,10179 57074,9478 82678,101 -18268,2784 -37549,1130 -56306,-5685 -59612,-21669 -91346,-87239 -70884,-146443 18641,-53932 74148,-83994 128930,-72576 -1951,-818 -3946,-1604 -5960,-2337z"/>
    </g>
   </g>
   <path class="fil5" d="M2897888 749789c-63082,-22926 -131785,9290 -153454,71959 -21666,62664 11913,132053 74995,154979 63087,22931 131785,-9287 153452,-71951 21669,-62669 -11902,-132055 -74992,-154987z"/>
   <path class="fil0" d="M2862644 807244c-21835,-10714 -49761,2223 -62386,28900 -12622,26674 -5158,56979 16674,67695 5614,2753 11638,3941 17696,3735 326,-7736 307,-16920 -34,-27568 3353,3697 8528,11709 15523,24043 11873,-5029 22616,-15205 29201,-29111 12622,-26671 5153,-56979 -16674,-67693z"/>
   <path class="fil0" d="M2859452 813988c-18784,-9216 -42813,1914 -53675,24863 -10859,22947 -4436,49025 14348,58241 4669,2292 9663,3322 14703,3229 87,-6050 5,-12823 -233,-20316 2771,3060 6805,9084 12074,18061 11005,-3994 21094,-13093 27124,-25837 10862,-22952 4444,-49023 -14340,-58241z"/>
   <path class="fil0" d="M2850461 837761c-9271,-4550 -21129,945 -26488,12268 -5357,11325 -2189,24191 7080,28746 9266,4547 21129,-945 26488,-12268 5360,-11331 2186,-24199 -7080,-28746z"/>
   <path class="fil0" d="M2849493 835037c-9271,-4550 -21131,945 -26488,12268 -5360,11325 -2191,24191 7080,28741 9266,4547 21129,-945 26488,-12268 5360,-11325 2186,-24194 -7080,-28741z"/>
   <path class="fil3" d="M2846438 812765c-7001,-3430 -15962,712 -20012,9274 -4049,8554 -1654,18273 5352,21711 7001,3438 15962,-712 20009,-9269 4049,-8554 1657,-18278 -5349,-21716z"/>
   <path class="fil0" d="M1975911 948701c0,-25070 -7051,-64628 -11174,-89716 -4642,-28267 -15314,-51910 -22500,-78404l-15142 -35974 -38184 -62913c-2350,-2930 -3756,-3507 -6413,-7305l-28820 -32949c-4777,-4084 -3044,-1927 -6974,-6744 -6069,-7437 -25737,-22735 -33560,-28383 -25274,-18305 -51378,-34548 -80177,-47247 -6860,-3025 -12890,-3912 -19517,-6281 -24387,-8710 -6953,-4875 -37930,-12119 -8612,-2004 -12156,-3719 -19940,-6090 -6318,-1927 -13099,-2446 -20168,-3390 -52477,-6937 -106343,-8499 -157758,3160 -10788,2446 -23715,2792 -34389,5992 -5201,1540 -9438,4182 -14102,5820l-27566 10981c-5645,3142 -8517,3258 -14160,5992 -5241,2543 -20576,11524 -24890,15377 -5452,4875 -5587,4007 -11810,8419 -7379,5262 -13871,14202 -20689,19713 -10386,8401 -19130,20793 -27356,31581 -5164,6784 -9401,15089 -13350,23026 -158028,98 -309216,1040 -448884,2718 2139,-67229 14332,-137291 38491,-209104 152710,-453759 961011,-725159 1428061,-40098 3795,5510 2678,7609 7051,13448l16915 25956c3332,6029 3314,9211 7165,15105 3218,4952 4682,6823 6956,13527 3909,11524 8919,14337 13138,27920 2620,8477 4759,8787 7705,14761 2795,5664 2872,10309 4933,15396 2329,5817 4814,7572 6993,13469 1810,4912 2678,10867 4219,16280 3660,12794 8938,18749 11251,31507 2485,13758 6858,19422 9515,31753 9152,42509 22346,104130 24003,145384 25064,196905 -64170,411213 -65382,423642l212 6686c-60665,39404 -151554,49115 -220869,55745 -123795,11849 -236106,27264 -348631,52373 6185,-5185 12331,-10812 18437,-16976 4449,-4470 4065,-3200 7398,-5995 15430,-12929 29802,-31022 43674,-45685 4584,-4857 8763,-9287 13657,-14914 12040,-13911 25025,-37091 35524,-52238l20419 -38576c2967,-7263 7244,-10441 9846,-18900 6916,-22468 7591,-15512 14814,-44513 2120,-8517 6434,-12717 8401,-21947 1829,-8612 1636,-16185 3446,-25530 1813,-9499 4645,-12717 5992,-22449 2755,-19808 2120,-41350 2120,-61293zm-715120 -205867c-5934,41503 -4296,79732 2620,123340 924,5759 2620,10791 4412,15819 1771,5029 3639,10039 4891,15743 10423,47863 82511,108211 128014,117885 11251,2390 20594,6204 32404,7554 15817,1810 56195,-6185 67367,-13199l48181 -30752c2602,-2255 3160,-3430 4989,-5203 1215,-1175 3314,-2678 5415,-4624 18456,-16995 49123,-68328 44788,-91624 -13927,3584 -20843,19250 -40879,34397l-27028 18305c-6048,2792 -10518,3083 -17164,6299 -31689,15359 -84417,9385 -112621,-11503 -49933,-36996 -59199,-112528 -45407,-170065 4102,-17074 15372,-36747 24506,-51447 10055,-16224 21981,-26475 36930,-37094 4949,-3507 5489,-5762 11595,-8729 4836,-2332 7207,-2948 12389,-6011 15467,-9152 67097,-22352 85571,-25030 21039,-3046 47644,-1580 71435,95 10230,752 53363,10597 61531,14239 5452,2390 7051,4605 13755,7054 11982,4354 27084,10444 38219,18593l52709 43470c17857,15531 45926,56439 53903,78039 1906,5243 4296,8710 6299,12604l14292 41966c9171,39656 10616,62796 10616,99927l-11270 73415c-2602,11368 -7686,21370 -9594,32467 -2485,14258 -7281,17381 -11212,29442 -4682,14337 -12040,30464 -20131,42393 -3449,5087 -3679,8419 -6222,14028 -3507,7803 -4529,4642 -9017,12852 -309889,395740 -903662,90793 -944675,-407322 130671,1562 271418,2504 418388,2678z"/>
   <path class="fil6" d="M1145397 1241566c-160378,-101237 -285001,-282672 -303031,-501410l99268 1059c-31168,212015 64519,395587 203763,500352zm-304939 -577599c2139,-67229 14332,-137291 38491,-209104 152710,-453759 961011,-725159 1428061,-40098 3795,5510 2678,7609 7051,13448l16915 25956c3332,6029 3314,9211 7165,15105 3218,4952 4682,6823 6956,13527 3909,11524 8919,14337 13138,27920 2620,8477 4759,8787 7705,14761 2795,5664 2872,10309 4933,15396 2329,5817 4814,7572 6993,13469 1810,4912 2678,10867 4219,16280 3660,12794 8938,18749 11251,31507 2485,13758 6858,19422 9515,31753 9152,42509 22346,104130 24003,145384 25064,196905 -64170,411213 -65382,423642l212 6686c-59469,38634 -147952,48713 -216708,55359l4719 -30829c963,-9923 72147,-180914 52151,-338031 -1310,-32930 -11849,-82104 -19149,-116016 -2120,-9827 -5606,-14337 -7591,-25321 -1850,-10174 -6069,-14933 -8978,-25144 -1233,-4317 -1906,-9076 -3372,-12987 -1734,-4703 -3697,-6109 -5585,-10754 -1620,-4065 -1697,-7765 -3930,-12291 -2350,-4761 -4047,-5010 -6146,-11754 -3353,-10849 -7361,-13104 -10481,-22296 -1810,-5354 -2967,-6839 -5548,-10791 -3062,-4701 -3044,-7244 -5701,-12043l-13506 -20713c-3486,-4682 -2599,-6339 -5624,-10751 -372674,-546635 -1017650,-330054 -1139497,32004 -2872,8536 -5510,17034 -7959,25493 -40262,365 -79735,770 -118322,1233z"/>
   <path class="fil0" d="M1340161 701328c-750123,985 -1340159,11196 -1340159,23662 0,12392 581482,22566 1323802,23662 3660,-16918 9094,-32698 16357,-47323z"/>
   <g>
    <path class="fil0" d="M2588725 1429094c-90806,193753 -418118,163101 -268330,-62296 31689,-47686 93501,66014 256157,44301 23720,-3163 24302,-7914 12172,17995z"/>
    <path class="fil3" d="M2310854 1382067c2962,-4997 6085,-10063 9541,-15269 31689,-47686 93501,66014 256157,44301 21544,-2872 23998,-7056 15179,11622 -69529,83171 -228523,44052 -280878,-40654z"/>
    <path class="fil7" d="M2440998 1550340c-75413,19453 -149278,-3732 -158300,-66901 3981,-180 7996,-270 12053,-270 71806,0 131785,28791 146247,67171z"/>
    <path class="fil4" d="M2320758 1366295c31795,-46339 93736,66438 255784,44796 20083,-2665 23596,-6469 16823,8149 -79873,51862 -216732,17574 -272607,-52945z"/>
   </g>
  </g>
 </g>
</svg>
