<?xml version="1.0" encoding="UTF-8"?>
<!DOCTYPE svg PUBLIC "-//W3C//DTD SVG 1.1//EN" "http://www.w3.org/Graphics/SVG/1.1/DTD/svg11.dtd">
<!-- Creator: CorelDRAW X6 -->
<svg xmlns="http://www.w3.org/2000/svg" xml:space="preserve" width="354.154mm" height="62.7542mm" version="1.1" style="shape-rendering:geometricPrecision; text-rendering:geometricPrecision; image-rendering:optimizeQuality; fill-rule:evenodd; clip-rule:evenodd"
viewBox="0 0 10723716 1900186"
 xmlns:xlink="http://www.w3.org/1999/xlink">
 <defs>
  <style type="text/css">
   <![CDATA[
    .fil5 {fill:none}
    .fil0 {fill:#2C324E}
    .fil6 {fill:#333A5D}
    .fil2 {fill:#D47227}
    .fil4 {fill:#DCDDDD}
    .fil7 {fill:#E62129}
    .fil1 {fill:#F08519}
    .fil3 {fill:#FEFEFE}
    .fil9 {fill:#2C324E;fill-rule:nonzero}
    .fil8 {fill:#F08519;fill-rule:nonzero}
   ]]>
  </style>
     <clipPath id="id0">
      <path d="M3510566 931011c-38410,-13971 -78991,-6777 -109007,15579l248 802 112 276 173 530 79 273 742 2410 79 282 82 276 88 279 590 2141 70 297 85 273 0 0 61 266 76 273 484 1923 82 260 73 266 118 551 76 273c164,724 336,1484 503,2210l51 266 67 276 67 282 45 266 445 2220 67 263c4478,23091 3158,47500 -4987,71076 -7285,21041 -19170,39049 -34168,53359 12993,27806 36648,50758 67706,62049 61029,22174 127475,-8981 148441,-69595 20945,-60608 -11524,-127726 -72544,-149900z"/>
     </clipPath>
     <clipPath id="id1">
      <path d="M3315325 857791c-72166,-26210 -150763,10637 -175547,82322 -24781,71697 13620,151081 85795,177310 72163,26237 150769,-10628 175559,-82316 24802,-71687 -13626,-151066 -85807,-177316z"/>
     </clipPath>
 </defs>
 <g id="Layer_x0020_1">
  <metadata id="CorelCorpID_0Corel-Layer"/>
  <g id="_437813088">
   <g>
    <path class="fil0" d="M973802 475105c-423073,4763 -696981,12412 -696981,21008 0,8509 267362,16048 681753,20854l218 -706 1344 -4033 1344 -4054 179 -530 176 -509c2071,-6083 4254,-12124 6546,-18141l197 -509 200 -527 197 -509 176 -530 200 -506 3833 -9765 200 -509 221 -527 197 -509z"/>
    <path class="fil0" d="M1010519 1162781c-458358,4763 -755055,12387 -755055,20987 0,8751 307343,16487 779675,21250l-354 -551 -42 -88 -421 -663 -397 -639c-3900,-6259 -7691,-12587 -11394,-18958l-372 -660 -397 -663 -772 -1320 -375 -663 -375 -660c-3304,-5711 -6568,-11506 -9720,-17372z"/>
    <path class="fil1" d="M3417205 1105565l0 22952c-113377,54912 -255241,147463 -361284,304412 -33514,49595 -49607,134439 -63978,171235 -47545,121619 -114476,209866 -297269,222172l-1603483 -9366c809213,-114361 672827,-237933 1375900,-300775 394652,-42156 319585,-133159 667827,-464922 13602,-14870 35745,-69698 92696,-81692l39100 2522c5638,45801 -68124,79024 -106739,115218 -106909,100117 -262338,282135 -253554,443169 59682,-135741 262877,-309230 416039,-412184 28475,-18077 56778,-19137 94746,-12742z"/>
    <path class="fil2" d="M2906760 1529715c60099,-135608 262817,-308633 415687,-411409 11637,-7382 23240,-11909 35488,-14277 -3379,9414 -1986,22144 -7101,33380 -1132,2477 -6649,3294 -9211,5196 -190188,115224 -316839,246859 -379960,394843 -26195,61529 -57377,110791 -55242,-6619l339 -1114z"/>
    <path class="fil2" d="M3501155 911698c-49647,-16932 -102073,-8315 -140853,18652l339 969 112 321 224 648 109 321 960 2931 100 324 106 333 100 324 787 2622 97 330 91 321 9 3 88 327 91 330 633 2310 88 327 88 336 170 660 91 330c221,884 442,1765 654,2662l70 330 82 333 79 333 73 330 587 2677 73 333c5786,27879 4085,57359 -6453,85828 -9387,25371 -24766,47115 -44142,64384 16775,33592 47352,61350 87494,75039 78837,26885 164701,-10631 191780,-83802 27076,-73168 -14889,-154282 -93725,-181167z"/>
    <path class="fil2" d="M3287774 835826c-89453,-31994 -186878,12884 -217603,100241 -30722,87348 16890,184098 106343,216092 89459,31997 186878,-12884 217600,-100235 30725,-87354 -16881,-184104 -106340,-216098z"/>
    <path class="fil1" d="M3510121 911680c-71909,-26138 -150212,10562 -174902,81977 -24690,71406 13590,150479 85498,176613 71909,26135 150212,-10565 174902,-81970 24690,-71415 -13590,-150485 -85498,-176619z"/>
    <path class="fil0" d="M3350071 1096384c15603,33353 43615,59079 78240,71645 70240,25526 147887,-10032 172416,-81035 24442,-70764 -13753,-148050 -83793,-173512 -42449,-15431 -90276,-8863 -126530,18165l-10713 7979 4630 14198 1653 5708 1432 5974 397 2074c3988,20545 2556,41641 -4297,61414 -6041,17505 -16024,33199 -29423,45986l-9699 9260 5687 12145z"/>
    <path class="fil3" d="M3510566 931011c-38410,-13971 -78991,-6777 -109007,15579l248 802 112 276 173 530 79 273 742 2410 79 282 82 276 88 279 590 2141 70 297 85 273 0 0 61 266 76 273 484 1923 82 260 73 266 118 551 76 273c164,724 336,1484 503,2210l51 266 67 276 67 282 45 266 445 2220 67 263c4478,23091 3158,47500 -4987,71076 -7285,21041 -19170,39049 -34168,53359 12993,27806 36648,50758 67706,62049 61029,22174 127475,-8981 148441,-69595 20945,-60608 -11524,-127726 -72544,-149900z"/>
    <g style="clip-path:url(#id0)">
     <g>
      <path id="1" class="fil4" d="M3435494 929230c-12203,3858 -23694,9732 -33941,17372l266 799 85 269 185 530 85 269 733 2419 85 269 73 269 73 282 624 2162 73 282 73 269 0 0 61 269 88 269 488 1914 73 282 61 269 133 542 61 269c173,736 354,1472 515,2207l61 282 48 257 61 282 61 269 451 2229 61 269c4478,23079 3161,47485 -4987,71067 -7273,21017 -19167,39046 -34174,53356 12981,27812 36636,50761 67712,62055 26328,9568 53656,9199 77922,836 -13102,-79 -26474,-2383 -39579,-7149 -31061,-11282 -54728,-34231 -67709,-62046 15004,-14307 26901,-32324 34159,-53353 8163,-23582 9468,-47987 5002,-71067l-61 -282 -451 -2216 -61 -269 -61 -269 -64 -282 -61 -273c-157,-733 -330,-1469 -500,-2204l-61 -269 -133 -554 -76 -269 -61 -269 -500 -1914 -73 -269 -61 -269 0 0 -85 -282 -76 -269 -597 -2174 -85 -269 -73 -257 -88 -282 -742 -2419 -76 -269 -182 -542 -85 -257 -4672 -11870z"/>
     </g>
    </g>
    <path class="fil5" d="M3510566 931011c-38410,-13971 -78991,-6777 -109007,15579l248 802 112 276 173 530 79 273 742 2410 79 282 82 276 88 279 590 2141 70 297 85 273 0 0 61 266 76 273 484 1923 82 260 73 266 118 551 76 273c164,724 336,1484 503,2210l51 266 67 276 67 282 45 266 445 2220 67 263c4478,23091 3158,47500 -4987,71076 -7285,21041 -19170,39049 -34168,53359 12993,27806 36648,50758 67706,62049 61029,22174 127475,-8981 148441,-69595 20945,-60608 -11524,-127726 -72544,-149900z"/>
    <path class="fil0" d="M3504471 994105c-22234,-10913 -50685,2268 -63542,29435 -12857,27164 -5247,58034 16984,68947 5723,2807 11855,4015 18029,3806 324,-7873 312,-17235 -42,-28075 3425,3764 8693,11924 15821,24487 12091,-5123 23034,-15488 29735,-29653 12857,-27167 5254,-58034 -16984,-68947z"/>
    <path class="fil0" d="M3501219 1000972c-19125,-9387 -43600,1950 -54661,25326 -11064,23376 -4527,49931 14607,59318 4760,2335 9847,3385 14976,3294 88,-6168 9,-13066 -242,-20693 2831,3113 6934,9244 12306,18392 11204,-4070 21484,-13329 27627,-26316 11061,-23370 4521,-49931 -14613,-59321z"/>
    <path class="fil0" d="M3492065 1025187c-9438,-4633 -21517,963 -26976,12496 -5456,11534 -2232,24645 7213,29278 9435,4633 21514,-963 26973,-12496 5456,-11534 2232,-24639 -7210,-29278z"/>
    <path class="fil0" d="M3491075 1022410c-9438,-4630 -21520,963 -26979,12496 -5456,11534 -2226,24642 7213,29271 9444,4633 21520,-963 26979,-12493 5456,-11534 2232,-24642 -7213,-29275z"/>
    <path class="fil3" d="M3487969 999734c-7128,-3500 -16257,727 -20381,9441 -4124,8712 -1684,18616 5447,22110 7134,3503 16257,-727 20381,-9438 4121,-8715 1684,-18619 -5447,-22113z"/>
    <path class="fil1" d="M3308779 835105c-85574,-31103 -178754,12569 -208137,97546 -29377,84974 16175,179066 101746,210169 85568,31097 178748,-12572 208128,-97546 29381,-84977 -16172,-179072 -101737,-210169z"/>
    <path class="fil0" d="M3321705 840271c-81259,-29538 -171160,11597 -199568,93755 -28321,81940 15957,171462 97062,200934 81283,29541 171160,-11594 199568,-93777 28324,-81937 -15979,-171438 -97062,-200913z"/>
    <path class="fil3" d="M3315325 857791c-72166,-26210 -150763,10637 -175547,82322 -24781,71697 13620,151081 85795,177310 72163,26237 150769,-10628 175559,-82316 24802,-71687 -13626,-151066 -85807,-177316z"/>
    <g style="clip-path:url(#id1)">
     <g>
      <path id="1" class="fil4" d="M3315334 857794c-72178,-26234 -150784,10625 -175574,82322 -24778,71700 13641,151075 85816,177310 32015,11646 65295,10843 94588,115 -20899,3185 -42958,1293 -64417,-6504 -68199,-24790 -104505,-99805 -81095,-167538 21326,-61701 84829,-96093 147502,-83030 -2232,-936 -4515,-1835 -6819,-2674z"/>
     </g>
    </g>
    <path class="fil5" d="M3315325 857791c-72166,-26210 -150763,10637 -175547,82322 -24781,71697 13620,151081 85795,177310 72163,26237 150769,-10628 175559,-82316 24802,-71687 -13626,-151066 -85807,-177316z"/>
    <path class="fil0" d="M3275011 923528c-24981,-12257 -56929,2544 -71373,33063 -14440,30516 -5902,65186 19076,77447 6422,3149 13314,4509 20245,4272 372,-8851 351,-19358 -39,-31539 3836,4230 9756,13396 17759,27506 13584,-5753 25874,-17396 33408,-33305 14440,-30513 5895,-65186 -19076,-77444z"/>
    <path class="fil0" d="M3271359 931244c-21490,-10543 -48981,2189 -61407,28445 -12424,26253 -5075,56087 16415,66631 5341,2622 11055,3800 16820,3694 100,-6922 6,-14671 -266,-23243 3170,3500 7785,10392 13814,20663 12590,-4569 24133,-14979 31031,-29559 12427,-26259 5084,-56084 -16406,-66631z"/>
    <path class="fil0" d="M3261073 958441c-10607,-5205 -24172,1081 -30304,14035 -6129,12957 -2504,27676 8100,32887 10601,5202 24172,-1081 30304,-14035 6132,-12963 2501,-27685 -8100,-32887z"/>
    <path class="fil0" d="M3259965 955325c-10607,-5205 -24175,1081 -30304,14035 -6132,12957 -2507,27676 8100,32881 10601,5202 24172,-1081 30304,-14035 6132,-12957 2501,-27679 -8100,-32881z"/>
    <path class="fil3" d="M3256470 929845c-8009,-3924 -18262,815 -22895,10610 -4633,9786 -1892,20905 6123,24839 8009,3933 18262,-815 22892,-10604 4633,-9786 1896,-20911 -6120,-24845z"/>
    <path class="fil0" d="M2260543 1085362c0,-28681 -8067,-73937 -12784,-102639 -5311,-32339 -17520,-59388 -25741,-89698l-17323 -41156 -43685 -71975c-2689,-3352 -4297,-4012 -7337,-8357l-32972 -37695c-5466,-4672 -3482,-2204 -7979,-7715 -6943,-8509 -29444,-26010 -38395,-32472 -28914,-20942 -58779,-39524 -91727,-54053 -7849,-3461 -14746,-4475 -22328,-7185 -27900,-9965 -7955,-5578 -43394,-13865 -9853,-2292 -13908,-4254 -22813,-6967 -7228,-2204 -14985,-2798 -23073,-3879 -60036,-7936 -121661,-9723 -180483,3615 -12342,2798 -27131,3195 -39343,6855 -5950,1762 -10798,4784 -16133,6659l-31536 12563c-6459,3594 -9744,3727 -16200,6855 -5995,2910 -23540,13184 -28475,17593 -6238,5578 -6392,4584 -13511,9632 -8442,6020 -15870,16248 -23670,22552 -11882,9611 -21886,23788 -31297,36130 -5908,7761 -10755,17263 -15273,26343 -180792,112 -353759,1190 -513546,3110 2447,-76914 16397,-157067 44036,-239226 174708,-519123 1099445,-829619 1633775,-45874 4342,6304 3064,8705 8067,15385l19352 29695c3812,6898 3791,10537 8197,17281 3682,5665 5356,7806 7958,15476 4472,13184 10204,16403 15031,31942 2998,9699 5444,10053 8814,16887 3198,6480 3285,11794 5644,17614 2665,6656 5508,8663 8000,15409 2071,5620 3064,12433 4827,18625 4188,14637 10225,21450 12872,36045 2843,15739 7846,22219 10886,36327 10471,48632 25565,119130 27461,166327 28675,225270 -73413,470448 -74800,484668l242 7649c-69404,45081 -173385,56190 -252685,63775 -141628,13556 -270117,31191 -398852,59918 7076,-5932 14107,-12369 21093,-19421 5090,-5114 4651,-3661 8463,-6858 17653,-14792 34095,-35491 49965,-52266 5244,-5556 10026,-10625 15624,-17063 13774,-15915 28630,-42434 40642,-59763l23361 -44133c3394,-8309 8288,-11945 11264,-21623 7912,-25705 8684,-17747 16948,-50925 2425,-9744 7361,-14549 9611,-25108 2092,-9853 1871,-18516 3942,-29208 2074,-10867 5314,-14549 6855,-25683 3152,-22661 2425,-47306 2425,-70122zm-818133 -235522c-6789,47482 -4914,91218 2998,141107 1057,6589 2998,12345 5048,18098 2026,5753 4163,11485 5596,18010 11924,54758 94397,123799 146454,134866 12872,2734 23561,7098 37072,8642 18095,2071 64290,-7076 77071,-15101l55121 -35182c2977,-2580 3615,-3924 5708,-5953 1390,-1344 3791,-3064 6195,-5290 21114,-19443 56199,-78170 51240,-104823 -15933,4100 -23845,22023 -46767,39352l-30922 20942c-6919,3195 -12033,3528 -19636,7207 -36254,17571 -96577,10737 -128844,-13160 -57126,-42325 -67727,-128738 -51948,-194563 4693,-19534 17587,-42040 28036,-58858 11503,-18562 25147,-30289 42249,-42437 5662,-4012 6280,-6592 13266,-9986 5532,-2668 8245,-3373 14174,-6877 17696,-10471 76762,-25571 97898,-28636 24069,-3485 54507,-1808 81725,109 11703,860 61050,12124 70395,16291 6238,2734 8067,5269 15736,8070 13708,4981 30985,11948 43724,21272l60302 49732c20430,17768 52542,64569 61668,89280 2180,5998 4914,9965 7207,14419l16351 48012c10492,45368 12145,71842 12145,114321l-12893 83990c-2977,13005 -8793,24448 -10976,37144 -2843,16312 -8330,19885 -12827,33683 -5356,16403 -13774,34852 -23031,48499 -3945,5820 -4209,9632 -7119,16048 -4012,8926 -5181,5311 -10316,14704 -354528,452747 -1033835,103872 -1080756,-465997 149494,1787 310517,2864 478657,3064z"/>
    <path class="fil6" d="M1310392 1420414c-183481,-115820 -326056,-323391 -346683,-573639l113567 1211c-35658,242556 73813,452571 233115,572428zm-348866 -660803c2447,-76914 16397,-157067 44036,-239226 174708,-519123 1099445,-829619 1633775,-45874 4342,6304 3064,8705 8067,15385l19352 29695c3812,6898 3791,10537 8197,17281 3682,5665 5356,7806 7958,15476 4472,13184 10204,16403 15031,31942 2998,9699 5444,10053 8814,16887 3198,6480 3285,11794 5644,17614 2665,6656 5508,8663 8000,15409 2071,5620 3064,12433 4827,18625 4188,14637 10225,21450 12872,36045 2843,15739 7846,22219 10886,36327 10471,48632 25565,119130 27461,166327 28675,225270 -73413,470448 -74800,484668l242 7649c-68036,44199 -169264,55730 -247925,63333l5399 -35270c1102,-11352 82540,-206975 59663,-386725 -1499,-37674 -13556,-93931 -21907,-132729 -2425,-11243 -6413,-16403 -8684,-28969 -2117,-11640 -6943,-17084 -10271,-28766 -1411,-4939 -2180,-10383 -3858,-14858 -1983,-5381 -4230,-6989 -6389,-12303 -1853,-4651 -1941,-8884 -4497,-14062 -2689,-5447 -4630,-5732 -7031,-13447 -3836,-12412 -8421,-14992 -11991,-25508 -2071,-6126 -3394,-7824 -6347,-12345 -3503,-5378 -3482,-8288 -6522,-13777l-15452 -23697c-3988,-5356 -2973,-7252 -6434,-12300 -426358,-625378 -1164244,-377598 -1303643,36614 -3285,9765 -6304,19488 -9105,29166 -46062,418 -91221,881 -135366,1411z"/>
    <path class="fil0" d="M1533213 802355c-858178,1126 -1533209,12808 -1533209,27070 0,14177 665245,25817 1514497,27070 4188,-19355 10404,-37408 18713,-54140z"/>
    <g>
     <path class="fil0" d="M2961633 1634956c-103887,221663 -478348,186596 -306983,-71270 36254,-54555 106970,75524 293057,50682 27137,-3618 27803,-9054 13926,20587z"/>
     <path class="fil3" d="M2643734 1581155c3388,-5717 6961,-11512 10916,-17468 36254,-54555 106970,75524 293057,50682 24648,-3285 27455,-8073 17365,13296 -79545,95151 -261442,50398 -321339,-46510z"/>
     <path class="fil7" d="M2792626 1773668c-86276,22256 -170781,-4269 -181104,-76538 4554,-206 9148,-309 13789,-309 82149,0 150769,32938 167314,76847z"/>
     <path class="fil4" d="M2655065 1563111c36375,-53014 107239,76008 292630,51249 22976,-3049 26994,-7400 19246,9323 -91378,59333 -247952,20106 -311876,-60572z"/>
    </g>
   </g>
   <g>
    <path class="fil8" d="M3828190 707564l154357 0c90007,0 154687,17617 194054,52869 39521,35249 59206,80087 59206,134673 0,58700 -28754,106094 -86255,141864 65199,25662 97719,74616 97719,146818 0,57850 -20203,104393 -60578,139814 -40563,35424 -93777,53214 -160002,53214l-198502 0 0 -669251zm151959 128335l0 144435c67769,-1720 101649,-25329 101649,-70673 0,-27222 -8045,-46037 -24306,-56823 -16085,-10601 -41919,-16245 -77344,-16939zm0 265751l0 144765c38325,-678 67251,-6498 86413,-17789 19164,-11119 28751,-29605 28751,-55436 0,-47757 -34222,-71539 -102670,-71539l-12493 0zm572052 134324l122876 0c-23452,103542 -81980,155381 -175571,155381 -58528,0 -104738,-22237 -138788,-66728 -34225,-44321 -51164,-105764 -51164,-183959 0,-72899 16939,-131251 51164,-175223 34050,-43987 79409,-65892 135872,-65892 34050,0 66746,10613 98225,31827 31321,21226 54240,49459 68623,84535 14368,35091 22410,90355 24130,165821l-243165 0c2050,68620 21038,102845 57156,102845 12318,0 23437,-4448 33023,-13517 9750,-9069 15567,-20708 17620,-35091zm-105749 -133473l105749 0c-1026,-32333 -5475,-56290 -13517,-71872 -8045,-15567 -20708,-23261 -38153,-23261 -19337,0 -33199,7522 -41589,22583 -8391,15061 -12490,39194 -12490,72550zm471790 -186863l0 62631 2556 0c34065,-51842 75639,-77692 124753,-77692 32000,0 57501,10616 76490,32003 18831,21399 28233,50310 28233,86758l0 357477 -145791 0 0 -284234c0,-15742 -3770,-28578 -11122,-38673 -7364,-9920 -16766,-15061 -28578,-15061 -30973,0 -46540,19682 -46540,58700l0 279268 -145461 0 0 -461177 145461 0zm589509 320336l0 120305c-34743,23440 -69647,35076 -104723,35076 -51857,0 -93431,-22410 -124580,-67421 -31321,-44999 -46888,-105404 -46888,-181216 0,-71872 16088,-130385 48087,-175568 32172,-44999 73574,-67597 124405,-67597 35424,0 70328,12490 104726,37647l0 119278c-19685,-10440 -37474,-15582 -53214,-15582 -23279,0 -42268,9417 -56651,28421 -14371,18816 -21562,43972 -21562,75451 0,33026 7019,59049 21057,78210 14195,18992 33199,28578 57156,28578 14713,0 32157,-5314 52187,-15582zm85734 -565551l145461 0 0 304769 2556 0c35594,-49792 77011,-74616 123726,-74616 33371,0 59379,10961 78037,32869 18471,21892 27712,52693 27712,92405l0 350964 -145794 0 0 -281318c0,-17977 -3594,-32172 -10771,-42268 -7191,-10268 -17114,-15234 -29950,-15234 -30298,0 -45517,20533 -45517,61601l0 277218 -145461 0 0 -706392zm630247 245215l0 56651c41399,-48433 83509,-72735 126282,-72735 51509,0 84708,26525 99769,79739 23440,-27709 45171,-48072 65359,-60735 20360,-12666 43987,-19004 71018,-19004 67772,0 101822,47409 101822,142385l0 334877 -145967 0 0 -272249c0,-44490 -14383,-66570 -43118,-66570 -29444,0 -44160,21732 -44160,65544l0 273275 -145791 0 0 -280291c0,-16939 -3942,-30976 -11812,-42095 -7870,-10961 -17965,-16433 -30283,-16433 -13011,0 -23452,5299 -31321,15912 -7870,10789 -11797,25329 -11797,43639l0 279268 -145461 0 0 -461177 145461 0zm801019 461177l0 -60578 -2050 0c-17632,26007 -34743,45184 -51336,57501 -16608,12490 -35942,18643 -58355,18643 -43812,0 -78715,-22410 -104895,-67248 -26007,-44666 -39019,-105577 -39019,-182415 0,-73922 13169,-132783 39524,-176422 26525,-43812 61271,-65719 104390,-65719 22931,0 42616,5662 58528,17287 16073,11467 32854,29950 50137,55451l2053 0 0 -57677 145964 0 0 461177 -144940 0zm0 -233073c0,-76650 -18658,-114815 -56130,-114815 -37819,0 -56635,38165 -56635,114815 0,79584 19509,119281 58685,119281 36115,0 54080,-39697 54080,-119281zm395630 -228104l0 77186 1877 0c34743,-60245 71367,-90355 109864,-90355 5647,0 13517,1026 23609,3076l0 142890c-17789,-3076 -34222,-4448 -49111,-4448 -53562,0 -80248,34555 -80248,103696l0 229130 -145461 0 0 -461177 139469 0zm213894 -245215l145461 0 0 409665 2556 0 99251 -164450 174384 0 -147856 206545 150933 254632 -168047 0 -108665 -225027 -2556 0 0 225027 -145461 0 0 -706392z"/>
    <path class="fil9" d="M8142167 707564l141864 0c98225,0 172998,27885 224161,84014 51003,55960 76665,137752 76665,245391 0,81459 -12666,147339 -37819,197476 -25329,50137 -60578,86413 -105749,108826 -45344,22425 -95481,33544 -150239,33544l-148883 0 0 -669251zm151959 142370l0 383990c46034,-3927 78715,-20360 97704,-48938 19004,-28578 28578,-75639 28578,-140998 0,-38846 -3422,-71700 -10095,-98573 -6671,-26858 -16590,-47567 -29774,-62107 -13172,-14559 -26010,-23452 -38673,-26876 -12490,-3422 -28405,-5472 -47739,-6498zm550490 49620c66570,0 117056,22080 151956,66398 34731,44318 52018,105922 52018,184810 0,77186 -17965,136898 -54068,179166 -36115,42268 -86079,63482 -149906,63482 -61259,0 -109692,-21562 -145619,-64681 -35945,-43118 -53907,-102500 -53907,-177967 0,-78888 17111,-140492 51336,-184810 34222,-44318 83681,-66398 148189,-66398zm1023 363470c19004,0 33374,-8896 42788,-26528 9574,-17789 14368,-48087 14368,-90861 0,-42440 -4793,-72045 -14035,-89156 -9402,-17111 -23437,-25674 -42095,-25674 -18471,0 -32505,8391 -42095,24823 -9747,16590 -14540,46873 -14540,91033 0,77516 18483,116362 55609,116362zm306819 -470246l145809 0 0 122860 56635 0 0 121331 -57677 0 0 339846 -144768 0 0 -340872 -55264 0 0 -120305 55264 0 0 -122860zm292800 -85213l153331 0 193028 386040 -5490 -72202 0 -313838 151959 0 0 669251 -155887 0 -189085 -380063 4103 83336 0 296727 -151959 0 0 -669251zm837294 528410l122876 0c-23452,103542 -81980,155381 -175568,155381 -58528,0 -104738,-22237 -138788,-66728 -34225,-44321 -51164,-105764 -51164,-183959 0,-72899 16939,-131251 51164,-175223 34050,-43987 79409,-65892 135872,-65892 34050,0 66743,10613 98225,31827 31321,21226 54237,49459 68620,84535 14371,35091 22413,90355 24130,165821l-243165 0c2053,68620 21041,102845 57156,102845 12318,0 23437,-4448 33026,-13517 9747,-9069 15567,-20708 17617,-35091zm-105746 -133473l105746 0c-1023,-32333 -5472,-56290 -13517,-71872 -8042,-15567 -20705,-23261 -38150,-23261 -19337,0 -33199,7522 -41589,22583 -8391,15061 -12490,39194 -12490,72550zm344466 -309723l145806 0 0 122860 56635 0 0 121331 -57677 0 0 339846 -144765 0 0 -340872 -55267 0 0 -120305 55267 0 0 -122860z"/>
   </g>
   <path class="fil9" d="M3829779 1555011l91581 0c24651,0 44508,7176 59627,21590 15104,14341 22628,33287 22628,56766 0,15379 -3697,30007 -11076,43872 -7379,13789 -18528,24172 -33502,30988 -14904,6758 -27639,10310 -38240,10586l-33356 836 0 103221 -57662 0 0 -267858zm56823 48478l0 68520 22153 0c9544,0 17689,-3479 24521,-10368 6758,-6976 10165,-15191 10165,-24723 0,-10873 -3824,-19291 -11494,-25284 -7652,-5992 -18528,-8984 -32663,-8984l-12681 839zm132247 132117c0,-27034 8636,-49171 25835,-66310 17272,-17129 39352,-25692 66385,-25692 25069,0 46165,8693 63161,26183 17069,17487 25562,39149 25562,65053 0,26398 -8493,48260 -25562,65677 -16996,17414 -38368,26107 -63999,26107 -28911,0 -51336,-9184 -67351,-27639 -16015,-18453 -24030,-39567 -24030,-63379zm129549 -73c0,-11839 -3843,-22222 -11567,-31061 -7727,-8851 -16708,-13229 -27019,-13229 -10658,0 -19858,4176 -27582,12463 -7727,8291 -11567,18180 -11567,29807 0,12605 3839,23406 11494,32245 7594,8851 16851,13241 27655,13241 10310,0 19291,-4333 27019,-12969 7724,-8633 11567,-18801 11567,-30498zm68287 -88175l55091 0 47091 104060 41777 -104060 33850 0 41371 103224 46946 -103224 54819 0 -79815 175511 -41517 0 -38513 -96114 -38586 96114 -43106 0 -79409 -175511zm514678 100290l-124941 0c693,11279 4378,20406 11134,27440 6689,7046 14559,10598 23540,10598 16030,0 28636,-7249 37762,-21732l47915 15942c-17835,31134 -45489,46728 -83018,46728 -27655,0 -49589,-8345 -65895,-25069 -16360,-16778 -24505,-39279 -24505,-67551 0,-25432 8563,-46804 25762,-64075 17199,-17269 38371,-25904 63524,-25904 25272,0 46455,9054 63382,27219 16923,18183 25341,40823 25341,68045l0 8360zm-124941 -35103l71033 0c-4939,-22007 -16230,-33011 -33847,-33011 -10168,0 -18528,2858 -25214,8636 -6613,5717 -10586,13862 -11973,24375zm211701 -65186l0 25907 836 0c5157,-8708 11207,-15667 18110,-20751 6816,-5084 13226,-7667 19076,-7667 3552,0 6758,288 9617,836l0 57256c-4391,-836 -8636,-1254 -12881,-1254 -10728,0 -19091,3752 -25011,11349 -5920,7525 -8911,18107 -8911,31697l0 78137 -53068 0 0 -175511 52233 0zm178285 -90267l0 50152c-7870,-5299 -14701,-7942 -20406,-7942 -7379,0 -13299,2643 -17907,7942 -4518,5299 -6816,12115 -6816,20548l0 19567 45129 0 0 47639 -45129 0 0 127872 -52245 0 0 -127872 -15452 0 0 -47639 15452 0 0 -21444c0,-29820 6268,-49950 18873,-60535 12605,-10510 27379,-15797 44375,-15797 13375,0 24796,2498 34125,7509zm34107 90267l53068 0 0 84420c0,12188 3076,22283 9199,30428 6195,8142 13792,12188 22773,12188 9617,0 17689,-3900 24245,-11770 6543,-7870 9820,-17762 9820,-29605l0 -85662 53071 0 0 102312c0,21735 -8218,39915 -24723,54528 -16506,14701 -36984,22023 -61574,22023 -26053,0 -46876,-7394 -62470,-22080 -15597,-14774 -23409,-34340 -23409,-58788l0 -97995zm224594 -96953l52233 0 0 272464 -52233 0 0 -272464zm214212 243280c0,-8981 3207,-16651 9547,-23046 6398,-6413 14065,-9617 23046,-9617 8984,0 16651,3204 23049,9617 6338,6395 9544,14065 9544,23046 0,8923 -3207,16506 -9544,22919 -6398,6410 -14065,9617 -23049,9617 -8981,0 -16648,-3207 -23046,-9617 -6341,-6413 -9547,-13995 -9547,-22919zm291876 -238675l56405 0 0 267858 -55857 0 -122991 -173416 0 173416 -57677 0 0 -267858 56984 0 123136 172162 0 -172162zm110991 0l150860 0 0 53068 -93201 0 0 53907 93201 0 0 52233 -93201 0 0 55582 93201 0 0 53068 -150860 0 0 -267858zm181618 0l180104 0 0 56823 -61432 0 0 211035 -57662 0 0 -211035 -61011 0 0 -56823zm330026 -4606l52233 0 0 272464 -52233 0 0 -272464zm102152 32042c0,-8851 3207,-16433 9547,-22843 6395,-6413 14065,-9617 23046,-9617 8981,0 16651,3204 23061,9617 6325,6410 9532,13992 9532,22843 0,9057 -3207,16724 -9532,23122 -6410,6410 -14080,9617 -23061,9617 -8981,0 -16651,-3207 -23046,-9617 -6341,-6398 -9547,-14065 -9547,-23122zm6686 64911l52233 0 0 175511 -52233 0 0 -175511zm106328 -96953l51827 0 0 120780c15524,-18107 33287,-27161 53199,-27161 21041,0 39221,9054 54543,27161 15394,18038 23049,39827 23049,65259 0,24085 -7525,45053 -22631,62961 -15119,17892 -32663,26816 -52651,26816 -10107,0 -19364,-2513 -27870,-7597 -8490,-5011 -17689,-13096 -27639,-24172l0 28418 -51827 0 0 -272464zm89849 145849c-10383,0 -19019,3682 -25907,11076 -6958,7452 -10453,17402 -10453,29877 0,11973 3624,21865 10946,29662 7307,7797 16433,11712 27437,11712 10092,0 18456,-3843 25141,-11494 6686,-7670 10020,-17344 10020,-29041 0,-11422 -3609,-21241 -10931,-29474 -7307,-8215 -16015,-12318 -26253,-12318zm181967 -48896l0 25907 839 0c5154,-8708 11204,-15667 18107,-20751 6816,-5084 13226,-7667 19076,-7667 3552,0 6758,288 9617,836l0 57256c-4391,-836 -8636,-1254 -12881,-1254 -10728,0 -19091,3752 -25011,11349 -5920,7525 -8908,18107 -8908,31697l0 78137 -53071 0 0 -175511 52233 0zm201621 175511l0 -30092 -839 0c-8145,11782 -16291,20272 -24578,25574 -8288,5211 -18528,7870 -30716,7870 -20475,0 -37892,-8854 -52230,-26543 -14428,-17689 -21605,-39149 -21605,-64490 0,-25011 7667,-46455 22988,-64363 15322,-17892 33505,-26801 54528,-26801 10038,0 19019,2223 27034,6613 8000,4391 16506,11349 25417,20954l0 -24233 52230 0 0 175511 -52230 0zm-38240 -126615c-10310,0 -18873,4103 -25762,12318 -6904,8233 -10383,18601 -10383,31076 0,11697 3279,21099 9820,28203 6613,7179 15249,10731 25907,10731 10310,0 19161,-4115 26468,-12333 7310,-8218 10934,-18180 10934,-29877 0,-10873 -3624,-20275 -10934,-28203 -7307,-7942 -16012,-11915 -26050,-11915zm192625 -48896l0 25907 836 0c5157,-8708 11207,-15667 18110,-20751 6816,-5084 13226,-7667 19073,-7667 3555,0 6758,288 9620,836l0 57256c-4391,-836 -8636,-1254 -12881,-1254 -10731,0 -19091,3752 -25011,11349 -5923,7525 -8911,18107 -8911,31697l0 78137 -53068 0 0 -175511 52233 0zm75479 0l55727 0 50355 102515 44433 -102515 53834 0 -109068 252827 -54328 0 39076 -90067 -80030 -162760zm444468 -90267l0 50152c-7870,-5299 -14701,-7942 -20403,-7942 -7379,0 -13302,2643 -17907,7942 -4521,5299 -6816,12115 -6816,20548l0 19567 45126 0 0 47639 -45126 0 0 127872 -52248 0 0 -127872 -15449 0 0 -47639 15449 0 0 -21444c0,-29820 6268,-49950 18876,-60535 12605,-10510 27379,-15797 44375,-15797 13372,0 24793,2498 34122,7509zm25820 178515c0,-27034 8636,-49171 25835,-66310 17272,-17129 39352,-25692 66382,-25692 25072,0 46168,8693 63164,26183 17069,17487 25562,39149 25562,65053 0,26398 -8493,48260 -25562,65677 -16996,17414 -38368,26107 -63999,26107 -28911,0 -51336,-9184 -67351,-27639 -16015,-18453 -24030,-39567 -24030,-63379zm129546 -73c0,-11839 -3839,-22222 -11567,-31061 -7724,-8851 -16705,-13229 -27016,-13229 -10658,0 -19858,4176 -27582,12463 -7727,8291 -11567,18180 -11567,29807 0,12605 3839,23406 11494,32245 7594,8851 16851,13241 27655,13241 10310,0 19291,-4333 27016,-12969 7727,-8633 11567,-18801 11567,-30498zm146442 -88175l0 25907 839 0c5157,-8708 11207,-15667 18107,-20751 6816,-5084 13229,-7667 19076,-7667 3555,0 6758,288 9620,836l0 57256c-4391,-836 -8636,-1254 -12881,-1254 -10731,0 -19091,3752 -25011,11349 -5923,7525 -8911,18107 -8911,31697l0 78137 -53068 0 0 -175511 52230 0zm192552 -96953l51827 0 0 120780c15524,-18107 33287,-27161 53199,-27161 21041,0 39221,9054 54543,27161 15394,18038 23049,39827 23049,65259 0,24085 -7525,45053 -22631,62961 -15119,17892 -32663,26816 -52651,26816 -10107,0 -19364,-2513 -27870,-7597 -8490,-5011 -17689,-13096 -27639,-24172l0 28418 -51827 0 0 -272464zm89849 145849c-10383,0 -19019,3682 -25907,11076 -6958,7452 -10453,17402 -10453,29877 0,11973 3624,21865 10946,29662 7307,7797 16433,11712 27437,11712 10092,0 18456,-3843 25141,-11494 6686,-7670 10020,-17344 10020,-29041 0,-11422 -3609,-21241 -10931,-29474 -7307,-8215 -16015,-12318 -26253,-12318zm295628 51394l-124941 0c693,11279 4375,20406 11134,27440 6686,7046 14559,10598 23540,10598 16030,0 28636,-7249 37762,-21732l47915 15942c-17835,31134 -45489,46728 -83021,46728 -27652,0 -49589,-8345 -65892,-25069 -16360,-16778 -24505,-39279 -24505,-67551 0,-25432 8563,-46804 25762,-64075 17199,-17269 38368,-25904 63524,-25904 25272,0 46455,9054 63382,27219 16923,18183 25341,40823 25341,68045l0 8360zm-124941 -35103l71033 0c-4939,-22007 -16230,-33011 -33847,-33011 -10168,0 -18528,2858 -25214,8636 -6613,5717 -10586,13862 -11973,24375zm218387 -65186l0 20823c17835,-16648 36563,-24996 56130,-24996 16724,0 30586,6889 41517,20608 10931,13717 16433,31276 16433,52590l0 106485 -53068 0 0 -98194c0,-10107 -2786,-18601 -8288,-25559 -5502,-6904 -12188,-10383 -20060,-10383 -9544,0 -17341,4388 -23464,13154 -6138,8781 -9199,20130 -9199,33995l0 86988 -52233 0 0 -175511 52233 0zm293115 114918l0 52233c-17965,8088 -32866,12115 -44708,12115 -26471,0 -48478,-8693 -66240,-26107 -17689,-17417 -26525,-39221 -26525,-65329 0,-26195 8215,-47987 24578,-65259 16375,-17269 37126,-25904 62340,-25904 17544,0 34540,4027 50973,12115l0 49299c-15176,-7234 -29111,-10858 -41717,-10858 -11697,0 -21099,3552 -28203,10731 -7179,7104 -10731,16575 -10731,28203 0,11567 3552,20966 10586,28072 7104,7176 16448,10728 28000,10728 10456,0 24375,-3349 41647,-10038zm45750 -211871l53068 0 0 117431c9472,-8218 18310,-14138 26468,-17835 8073,-3682 17547,-5575 28203,-5575 18313,0 32666,6628 43049,19930 10368,13226 15524,31682 15524,55218l0 103294 -53071 0 0 -94095c0,-11349 -2858,-20823 -8563,-28475 -5717,-7743 -12678,-11567 -21038,-11567 -10586,0 -18310,4460 -23264,13299 -4866,8851 -7307,22643 -7307,41444l0 79394 -53068 0 0 -272464zm273475 96953l0 27582c2441,-1602 6065,-4663 10801,-9272 4736,-4518 9257,-8345 13720,-11552 4391,-3134 9674,-5644 15812,-7594 6195,-1950 11770,-2919 16781,-2919 8012,0 16648,2846 25977,8493 9402,5702 17126,15812 23394,30295 10873,-13935 21532,-23885 31900,-29877 10456,-5920 20130,-8911 29111,-8911 15885,0 29402,6543 40405,19712 11004,13084 16506,29241 16506,48390l0 111163 -52233 0 0 -97010c0,-9690 -2656,-17762 -7942,-24318 -5299,-6613 -11709,-9892 -19219,-9892 -8923,0 -16724,3770 -23191,11222 -6556,7449 -9835,16303 -9835,26598l0 93401 -51812 0 0 -94858c0,-10241 -2643,-18876 -8000,-25835 -5302,-7034 -11785,-10528 -19367,-10528 -8923,0 -16578,3843 -23061,11567 -6471,7667 -9747,16854 -9747,27655l0 91999 -53068 0 0 -175511 53068 0zm391818 175511l0 -30092 -839 0c-8145,11782 -16288,20272 -24578,25574 -8288,5211 -18528,7870 -30716,7870 -20475,0 -37892,-8854 -52230,-26543 -14428,-17689 -21605,-39149 -21605,-64490 0,-25011 7670,-46455 22991,-64363 15322,-17892 33502,-26801 54528,-26801 10035,0 19016,2223 27031,6613 8000,4391 16506,11349 25417,20954l0 -24233 52230 0 0 175511 -52230 0zm-38240 -126615c-10310,0 -18873,4103 -25762,12318 -6901,8233 -10383,18601 -10383,31076 0,11697 3279,21099 9820,28203 6616,7179 15249,10731 25907,10731 10310,0 19164,-4115 26471,-12333 7307,-8218 10931,-18180 10931,-29877 0,-10873 -3624,-20275 -10931,-28203 -7307,-7942 -16015,-11915 -26053,-11915zm192625 -48896l0 25907 836 0c5157,-8708 11207,-15667 18110,-20751 6816,-5084 13226,-7667 19076,-7667 3552,0 6758,288 9617,836l0 57256c-4391,-836 -8636,-1254 -12881,-1254 -10731,0 -19091,3752 -25011,11349 -5920,7525 -8911,18107 -8911,31697l0 78137 -53068 0 0 -175511 52233 0zm84202 -96953l51812 0 0 165691 51612 -68738 62888 0 -58225 77519 63236 97992 -59191 0 -60320 -92693 0 92693 -51812 0 0 -272464zm197491 32042c0,-8851 3204,-16433 9544,-22843 6398,-6413 14065,-9617 23046,-9617 8984,0 16651,3204 23064,9617 6322,6410 9529,13992 9529,22843 0,9057 -3207,16724 -9529,23122 -6413,6410 -14080,9617 -23064,9617 -8981,0 -16648,-3207 -23046,-9617 -6341,-6398 -9544,-14065 -9544,-23122zm6686 64911l52230 0 0 175511 -52230 0 0 -175511zm162745 0l0 20823c17835,-16648 36563,-24996 56130,-24996 16724,0 30586,6889 41517,20608 10934,13717 16436,31276 16436,52590l0 106485 -53071 0 0 -98194c0,-10107 -2786,-18601 -8288,-25559 -5502,-6904 -12188,-10383 -20057,-10383 -9547,0 -17344,4388 -23467,13154 -6138,8781 -9199,20130 -9199,33995l0 86988 -52233 0 0 -175511 52233 0zm282674 165622l0 -20608c-15667,19770 -33704,29662 -54252,29662 -22080,0 -40463,-8490 -55236,-25490 -14758,-16996 -22138,-38310 -22138,-63869 0,-24723 7655,-45747 22976,-63091 15249,-17344 33704,-25980 55164,-25980 18253,0 36072,9329 53486,27988l0 -24233 51815 0 0 177882c0,9820 -3061,21096 -9257,33847 -6195,12751 -16796,22153 -31624,28203 -14904,6065 -32175,9126 -51742,9126 -24375,0 -43812,-4518 -58440,-13647 -14628,-9126 -25141,-24793 -31555,-46946l58585 0c11425,15885 23812,23827 37114,23827 10383,0 18801,-4318 25284,-12966 6543,-8636 9820,-19842 9820,-33704zm-76057 -78846c0,8996 3897,17702 11709,26268 7800,8490 16926,12736 27367,12736 10165,0 18873,-4030 26122,-12188 7234,-8073 10858,-17965 10858,-29662 0,-12057 -3479,-21877 -10383,-29674 -6886,-7727 -15797,-11624 -26598,-11624 -11004,0 -20275,4027 -27785,12188 -7525,8073 -11291,18728 -11291,31957z"/>
  </g>
 </g>
</svg>
