<?xml version="1.0" encoding="UTF-8"?>
<!DOCTYPE svg PUBLIC "-//W3C//DTD SVG 1.1//EN" "http://www.w3.org/Graphics/SVG/1.1/DTD/svg11.dtd">
<!-- Creator: CorelDRAW X6 -->
<svg xmlns="http://www.w3.org/2000/svg" xml:space="preserve" width="227.727mm" height="107.798mm" version="1.1" style="shape-rendering:geometricPrecision; text-rendering:geometricPrecision; image-rendering:optimizeQuality; fill-rule:evenodd; clip-rule:evenodd"
viewBox="0 0 5304765 2511103"
 xmlns:xlink="http://www.w3.org/1999/xlink">
 <defs>
  <style type="text/css">
   <![CDATA[
    .fil5 {fill:none}
    .fil0 {fill:#2C324E}
    .fil6 {fill:#333A5D}
    .fil2 {fill:#D47227}
    .fil4 {fill:#DCDDDD}
    .fil7 {fill:#E62129}
    .fil1 {fill:#F08519}
    .fil3 {fill:#FEFEFE}
    .fil9 {fill:#2C324E;fill-rule:nonzero}
    .fil8 {fill:#F08519;fill-rule:nonzero}
   ]]>
  </style>
     <clipPath id="id0">
      <path d="M3652854 711776c-29381,-10680 -60412,-5183 -83359,11915l193 613 72 205 135 417 61 200 566 1847 63 217 61 205 65 203 459 1661 58 210 58 212 0 0 54 200 58 210 370 1463 51 210 49 207 105 419 49 212c133,554 266,1120 391,1680l44 210 40 212 51 205 42 210 342 1696 49 210c3422,17646 2416,36307 -3818,54337 -5560,16073 -14652,29847 -26127,40793 9933,21256 28023,38804 51781,47437 46663,16954 97471,-6870 113504,-53207 16024,-46347 -8808,-97655 -55469,-114606z"/>
     </clipPath>
     <clipPath id="id1">
      <path d="M3503556 655804c-55187,-20057 -115291,8125 -134248,62939 -18952,54814 10422,115501 65611,135550 55187,20054 115287,-8123 134246,-62932 18957,-54812 -10415,-115498 -65609,-135557z"/>
     </clipPath>
 </defs>
 <g id="Layer_x0020_1">
  <metadata id="CorelCorpID_0Corel-Layer"/>
  <g id="_437804976">
   <g>
    <path class="fil0" d="M1713022 363230c-323518,3639 -532972,9488 -532972,16062 0,6504 204448,12269 521325,15943l170 -540 1027 -3084 1027 -3100 135 -405 135 -387c1584,-4652 3254,-9269 5006,-13870l151 -389 151 -403 151 -389 135 -403 151 -389 2933 -7466 151 -387 170 -405 151 -387z"/>
    <path class="fil0" d="M1741098 888972c-350500,3639 -577381,9472 -577381,16043 0,6692 235022,12607 596207,16248l-270 -422 -35 -68 -319 -505 -303 -489c-2984,-4787 -5882,-9623 -8714,-14494l-287 -505 -303 -505 -589 -1011 -287 -505 -287 -505c-2527,-4365 -5022,-8798 -7433,-13280z"/>
    <path class="fil1" d="M3581457 845227l0 17548c-86697,41981 -195179,112738 -276270,232730 -25626,37916 -37933,102780 -48923,130912 -36356,92980 -87536,160447 -227316,169856l-1226161 -7161c618793,-87431 514502,-181906 1052131,-229951 301784,-32228 244382,-101801 510677,-355441 10403,-11370 27336,-53286 70885,-62457l29901 1931c4309,35014 -52096,60414 -81624,88083 -81752,76543 -200607,215700 -193891,338813 45641,-103774 201019,-236411 318139,-315122 21776,-13821 43419,-14631 72453,-9742z"/>
    <path class="fil2" d="M3191128 1169500c45955,-103677 200970,-235956 317867,-314531 8901,-5644 17774,-9106 27140,-10916 -2586,7198 -1521,16930 -5430,25519 -869,1896 -5085,2520 -7044,3974 -145434,88093 -242283,188729 -290552,301866 -20031,47038 -43875,84703 -42244,-5060l263 -853z"/>
    <path class="fil2" d="M3645652 697011c-37963,-12942 -78053,-6357 -107709,14261l261 743 84 245 172 496 84 245 734 2239 77 249 79 254 77 249 603 2003 75 252 70 247 5 2 70 252 68 249 485 1766 68 252 68 256 128 505 70 252c170,676 340,1351 499,2036l56 252 61 254 61 256 56 252 450 2048 56 254c4424,21314 3124,43852 -4934,65618 -7179,19395 -18941,36020 -33756,49221 12828,25684 36209,46903 66906,57370 60284,20555 125944,-8125 146650,-64069 20704,-55937 -11384,-117951 -71670,-138506z"/>
    <path class="fil2" d="M3482481 639006c-68402,-24459 -142902,9851 -166397,76636 -23492,66780 12914,140750 81319,165209 68409,24459 142904,-9851 166397,-76632 23495,-66785 -12910,-140752 -81319,-165213z"/>
    <path class="fil1" d="M3652510 696998c-54989,-19980 -114867,8076 -133747,62674 -18878,54591 10392,115044 65380,135024 54987,19982 114865,-8076 133745,-62667 18880,-54598 -10392,-115049 -65378,-135031z"/>
    <path class="fil0" d="M3530121 838208c11931,25500 33353,45168 59829,54775 53712,19516 113085,-7669 131844,-61954 18689,-54099 -10517,-113188 -64076,-132653 -32461,-11799 -69033,-6776 -96756,13886l-8190 6101 3538 10855 1265 4365 1095 4566 303 1584c3052,15707 1954,31837 -3287,46955 -4617,13380 -12253,25382 -22498,35156l-7417 7079 4349 9285z"/>
    <path class="fil3" d="M3652854 711776c-29381,-10680 -60412,-5183 -83359,11915l193 613 72 205 135 417 61 200 566 1847 63 217 61 205 65 203 459 1661 58 210 58 212 0 0 54 200 58 210 370 1463 51 210 49 207 105 419 49 212c133,554 266,1120 391,1680l44 210 40 212 51 205 42 210 342 1696 49 210c3422,17646 2416,36307 -3818,54337 -5560,16073 -14652,29847 -26127,40793 9933,21256 28023,38804 51781,47437 46663,16954 97471,-6870 113504,-53207 16024,-46347 -8808,-97655 -55469,-114606z"/>
    <g style="clip-path:url(#id0)">
     <g>
      <path id="1" class="fil4" d="M3595441 710417c-9329,2949 -18116,7438 -25955,13280l205 610 68 207 140 403 65 207 559 1850 65 207 56 205 56 217 475 1652 56 214 56 207 0 0 47 205 65 207 375 1463 56 217 47 205 102 412 47 207c130,561 270,1125 391,1687l47 214 37 198 47 214 47 207 345 1705 47 205c3424,17646 2418,36302 -3816,54334 -5560,16066 -14657,29849 -26132,40789 9928,21263 28016,38809 51779,47444 20131,7314 41031,7033 59585,638 -10019,-61 -20243,-1822 -30264,-5465 -23751,-8626 -41851,-26171 -51777,-47434 11475,-10939 20571,-24715 26122,-40791 6241,-18030 7240,-36686 3825,-54332l-47 -214 -345 -1696 -47 -207 -47 -205 -47 -217 -49 -205c-121,-564 -252,-1125 -382,-1687l-47 -207 -102 -422 -56 -207 -47 -205 -382 -1463 -56 -207 -47 -205 0 0 -65 -217 -56 -205 -457 -1661 -65 -207 -56 -198 -68 -214 -568 -1850 -56 -207 -140 -412 -65 -198 -3573 -9073z"/>
     </g>
    </g>
    <path class="fil5" d="M3652854 711776c-29381,-10680 -60412,-5183 -83359,11915l193 613 72 205 135 417 61 200 566 1847 63 217 61 205 65 203 459 1661 58 210 58 212 0 0 54 200 58 210 370 1463 51 210 49 207 105 419 49 212c133,554 266,1120 391,1680l44 210 40 212 51 205 42 210 342 1696 49 210c3422,17646 2416,36307 -3818,54337 -5560,16073 -14652,29847 -26127,40793 9933,21256 28023,38804 51781,47437 46663,16954 97471,-6870 113504,-53207 16024,-46347 -8808,-97655 -55469,-114606z"/>
    <path class="fil0" d="M3648186 760014c-17000,-8342 -38757,1735 -48588,22505 -9830,20767 -4014,44369 12987,52711 4377,2145 9064,3070 13788,2909 247,-6019 238,-13175 -35,-21463 2618,2877 6648,9115 12099,18719 9246,-3916 17613,-11841 22738,-22670 9830,-20767 4018,-44367 -12989,-52711z"/>
    <path class="fil0" d="M3645701 765264c-14624,-7175 -33339,1491 -41800,19362 -8458,17874 -3459,38173 11170,45352 3641,1784 7531,2588 11454,2518 68,-4717 7,-9989 -186,-15822 2166,2381 5302,7068 9411,14061 8568,-3110 16430,-10191 21126,-20119 8458,-17867 3457,-38173 -11174,-45352z"/>
    <path class="fil0" d="M3638701 783776c-7217,-3541 -16453,736 -20627,9555 -4172,8817 -1707,18841 5514,22384 7217,3541 16453,-738 20627,-9555 4172,-8817 1705,-18836 -5514,-22384z"/>
    <path class="fil0" d="M3637944 781654c-7217,-3541 -16455,736 -20630,9553 -4174,8819 -1703,18841 5514,22381 7221,3541 16458,-736 20632,-9553 4174,-8819 1705,-18838 -5516,-22381z"/>
    <path class="fil3" d="M3635570 764318c-5453,-2677 -12432,554 -15586,7217 -3154,6662 -1288,14233 4165,16905 5456,2679 12432,-554 15584,-7217 3154,-6662 1291,-14233 -4163,-16905z"/>
    <path class="fil1" d="M3498545 638454c-65436,-23777 -136692,9611 -159159,74579 -22465,64964 12367,136899 77803,160676 65432,23777 136687,-9611 159152,-74575 22465,-64968 -12367,-136904 -77796,-160680z"/>
    <path class="fil0" d="M3508429 642407c-62138,-22584 -130882,8864 -152607,71677 -21657,62643 12202,131085 74223,153617 62154,22584 130882,-8864 152607,-71693 21657,-62643 -12218,-131068 -74223,-153601z"/>
    <path class="fil3" d="M3503556 655804c-55187,-20057 -115291,8125 -134248,62939 -18952,54814 10422,115501 65611,135550 55187,20054 115287,-8123 134246,-62932 18957,-54812 -10415,-115498 -65609,-135557z"/>
    <g style="clip-path:url(#id1)">
     <g>
      <path id="1" class="fil4" d="M3503556 655801c-55192,-20057 -115300,8123 -134257,62939 -18948,54814 10431,115498 65623,135555 24480,8903 49929,8290 72329,89 -15980,2434 -32847,988 -49258,-4973 -52149,-18952 -79914,-76303 -62012,-128087 16308,-47171 64868,-73464 112792,-63477 -1707,-715 -3452,-1405 -5216,-2045z"/>
     </g>
    </g>
    <path class="fil5" d="M3503556 655804c-55187,-20057 -115291,8125 -134248,62939 -18952,54814 10422,115501 65611,135550 55187,20054 115287,-8123 134246,-62932 18957,-54812 -10415,-115498 -65609,-135557z"/>
    <path class="fil0" d="M3472721 706057c-19101,-9371 -43530,1945 -54577,25279 -11042,23327 -4512,49836 14589,59207 4910,2409 10180,3448 15481,3266 284,-6765 268,-14799 -33,-24112 2935,3236 7461,10243 13583,21030 10385,-4400 19784,-13299 25545,-25461 11042,-23329 4507,-49838 -14589,-59210z"/>
    <path class="fil0" d="M3469930 711957c-16434,-8062 -37455,1670 -46957,21745 -9499,20070 -3881,42880 12551,50943 4086,2001 8456,2905 12863,2821 77,-5290 5,-11214 -205,-17769 2425,2677 5954,7946 10564,15798 9628,-3494 18454,-11454 23730,-22600 9502,-20075 3886,-42876 -12546,-50938z"/>
    <path class="fil0" d="M3462066 732750c-8111,-3979 -18486,825 -23173,10729 -4689,9905 -1917,21158 6192,25142 8106,3979 18486,-825 23173,-10729 4691,-9909 1915,-21165 -6192,-25142z"/>
    <path class="fil0" d="M3461216 730367c-8111,-3979 -18484,827 -23171,10729 -4689,9905 -1917,21158 6194,25137 8106,3979 18484,-825 23173,-10729 4687,-9905 1910,-21161 -6196,-25137z"/>
    <path class="fil3" d="M3458544 710886c-6124,-3000 -13963,624 -17506,8111 -3543,7485 -1447,15985 4682,18992 6124,3005 13963,-624 17506,-8106 3541,-7485 1447,-15989 -4682,-18997z"/>
    <path class="fil0" d="M2696972 829783c0,-21927 -6168,-56526 -9774,-78470 -4060,-24725 -13399,-45403 -19684,-68576l-13248 -31466 -33404 -55026c-2055,-2562 -3285,-3068 -5612,-6387l-25212 -28820c-4181,-3573 -2663,-1684 -6101,-5898 -5309,-6506 -22516,-19886 -29360,-24825 -22111,-16010 -44947,-30218 -70142,-41324 -6001,-2646 -11277,-3422 -17072,-5495 -21338,-7617 -6085,-4263 -33185,-10601 -7533,-1752 -10634,-3252 -17443,-5325 -5528,-1684 -11461,-2141 -17646,-2965 -45909,-6068 -93031,-7433 -138013,2763 -9439,2141 -20746,2444 -30082,5241 -4552,1349 -8260,3657 -12337,5090l-24119 9607c-4936,2749 -7447,2849 -12386,5241 -4584,2225 -18000,10080 -21776,13450 -4768,4263 -4887,3506 -10331,7366 -6455,4601 -12134,12421 -18100,17240 -9085,7347 -16737,18184 -23933,27623 -4517,5933 -8223,13196 -11680,20140 -138248,84 -270514,908 -392700,2376 1871,-58802 12539,-120080 33672,-182894 133598,-396879 840731,-634261 1249325,-35072 3322,4822 2343,6658 6168,11764l14799 22703c2914,5274 2898,8055 6269,13213 2814,4330 4095,5966 6085,11831 3422,10077 7804,12539 11493,24420 2292,7417 4163,7687 6741,12910 2444,4955 2511,9017 4314,13467 2041,5090 4214,6623 6119,11780 1584,4298 2341,9506 3690,14242 3203,11191 7820,16397 9842,27555 2173,12034 6001,16989 8325,27774 8006,37178 19551,91077 21000,127160 21927,172225 -56140,359668 -57199,370538l184 5849c-53072,34464 -132585,42960 -193223,48755 -108300,10366 -206556,23849 -304996,45809 5409,-4533 10785,-9455 16129,-14848 3893,-3911 3555,-2798 6471,-5241 13499,-11309 26071,-27133 38205,-39959 4011,-4247 7669,-8123 11950,-13045 10534,-12169 21892,-32442 31077,-45690l17865 -33740c2597,-6355 6338,-9136 8612,-16534 6052,-19651 6641,-13567 12961,-38930 1854,-7450 5630,-11123 7347,-19197 1603,-7533 1433,-14156 3019,-22330 1584,-8309 4060,-11123 5241,-19635 2409,-17326 1852,-36167 1852,-53610zm-625614 -180064c-5190,36304 -3757,69741 2292,107879 808,5041 2292,9439 3860,13837 1551,4400 3184,8782 4282,13769 9117,41865 72182,94650 111990,103110 9842,2090 18016,5425 28347,6606 13837,1584 49161,-5411 58937,-11545l42149 -26898c2276,-1973 2765,-3000 4365,-4552 1062,-1027 2898,-2341 4736,-4044 16145,-14864 42976,-59762 39184,-80138 -12185,3133 -18235,16835 -35762,30082l-23646 16010c-5292,2444 -9201,2697 -15016,5511 -27725,13432 -73853,8209 -98526,-10061 -43684,-32358 -51791,-98424 -39722,-148749 3590,-14932 13448,-32139 21436,-44998 8798,-14191 19230,-23157 32309,-32442 4330,-3068 4803,-5039 10145,-7636 4230,-2038 6303,-2579 10837,-5258 13534,-8006 58702,-19551 74864,-21892 18403,-2663 41678,-1381 62492,84 8950,657 46684,9269 53829,12456 4771,2090 6168,4028 12034,6168 10482,3809 23697,9134 33437,16262l46111 38021c15624,13585 40178,49366 47155,68257 1670,4584 3760,7617 5511,11023l12507 36705c8020,34685 9285,54926 9285,87403l-9858 64211c-2276,9942 -6725,18689 -8393,28398 -2176,12472 -6371,15202 -9809,25752 -4095,12537 -10534,26644 -17613,37078 -3017,4449 -3217,7363 -5442,12269 -3068,6825 -3962,4060 -7887,11240 -271105,346137 -790560,79413 -826440,-356263 114315,1365 237447,2190 366021,2341z"/>
    <path class="fil6" d="M1970407 1085935c-140305,-88547 -249330,-247238 -265105,-438557l86846 927c-27268,185438 56442,345999 178258,437630zm-266773 -505196c1871,-58802 12539,-120080 33672,-182894 133598,-396879 840731,-634261 1249325,-35072 3322,4822 2343,6658 6168,11764l14799 22703c2914,5274 2898,8055 6269,13213 2814,4330 4095,5966 6085,11831 3422,10077 7804,12539 11493,24420 2292,7417 4163,7687 6741,12910 2444,4955 2511,9017 4314,13467 2041,5090 4214,6623 6119,11780 1584,4298 2341,9506 3690,14242 3203,11191 7820,16397 9842,27555 2173,12034 6001,16989 8325,27774 8006,37178 19551,91077 21000,127160 21927,172225 -56140,359668 -57199,370538l184 5849c-52026,33791 -129433,42606 -189584,48420l4130 -26966c843,-8680 63116,-158237 45622,-295660 -1146,-28801 -10366,-71812 -16753,-101473 -1854,-8596 -4903,-12539 -6639,-22146 -1619,-8898 -5309,-13061 -7855,-21995 -1079,-3774 -1668,-7936 -2949,-11358 -1516,-4111 -3236,-5344 -4887,-9404 -1416,-3557 -1484,-6793 -3438,-10753 -2057,-4163 -3538,-4382 -5376,-10280 -2933,-9490 -6439,-11461 -9169,-19500 -1584,-4685 -2595,-5984 -4852,-9439 -2681,-4111 -2663,-6336 -4990,-10534l-11815 -18116c-3049,-4095 -2274,-5544 -4920,-9404 -326029,-478114 -890281,-288683 -996878,27993 -2511,7466 -4820,14899 -6960,22297 -35224,319 -69755,673 -103513,1079z"/>
    <path class="fil0" d="M2140794 613417c-656237,860 -1172423,9793 -1172423,20697 0,10837 508704,19735 1158116,20695 3201,-14797 7955,-28599 14307,-41392z"/>
    <g>
     <path class="fil0" d="M3233086 1249959c-79439,169465 -365786,142655 -234745,-54488 27723,-41709 81798,57740 224097,38748 20751,-2765 21259,-6921 10648,15740z"/>
     <path class="fil3" d="M2989995 1208825c2590,-4370 5323,-8801 8346,-13355 27723,-41709 81798,57740 224097,38748 18850,-2511 20995,-6173 13278,10163 -60824,72746 -199920,38534 -245721,-35557z"/>
     <path class="fil7" d="M3103849 1356006c-65972,17014 -130591,-3264 -138485,-58516 3483,-158 6993,-238 10543,-238 62820,0 115291,25184 127942,58753z"/>
     <path class="fil4" d="M2998658 1195030c27816,-40528 82006,58110 223771,39181 17571,-2332 20641,-5658 14717,7128 -69876,45361 -189605,15372 -238488,-46309z"/>
    </g>
   </g>
   <g>
    <path class="fil8" d="M0 1593610l118748 0c69243,0 119002,13553 149285,40672 30406,27117 45548,61611 45548,103604 0,45159 -22118,81619 -66354,109137 50158,19742 75176,57402 75176,112948 0,44504 -15542,80310 -46603,107560 -31208,27252 -72145,40938 -123090,40938l-152709 0 0 -514858zm116903 98729l0 111114c52135,-1323 78197,-19486 78197,-54369 0,-20942 -6187,-35417 -18696,-43714 -12376,-8155 -32251,-12497 -59501,-13031zm0 204444l0 111368c29484,-522 51735,-4999 66478,-13685 14741,-8554 22118,-22775 22118,-42647 0,-36740 -26330,-55035 -78987,-55035l-9609 0zm440081 103336l94529 0c-18042,79655 -63067,119538 -135066,119538 -45026,0 -80575,-17110 -106770,-51336 -26330,-34096 -39361,-81365 -39361,-141521 0,-56081 13031,-100972 39361,-134800 26195,-33840 61090,-50691 104527,-50691 26195,0 51346,8165 75565,24485 24096,16329 41725,38049 52790,65033 11056,26996 17243,69511 18563,127567l-187068 0c1577,52790 16187,79120 43971,79120 9476,0 18030,-3422 25407,-10399 7498,-6977 11976,-15931 13553,-26996zm-81353 -102682l81353 0c-787,-24874 -4209,-43304 -10399,-55292 -6187,-11976 -15929,-17895 -29349,-17895 -14876,0 -25540,5786 -31995,17373 -6455,11587 -9611,30152 -9611,55813zm362951 -143755l0 48182 1966 0c26209,-39882 58192,-59769 95973,-59769 24620,0 44238,8167 58846,24620 14487,16462 21720,38704 21720,66743l0 275009 -112160 0 0 -218663c0,-12111 -2900,-21985 -8554,-29752 -5665,-7631 -12898,-11587 -21985,-11587 -23830,0 -35806,15141 -35806,45159l0 214842 -111902 0 0 -354786 111902 0zm453515 246437l0 92551c-26730,18032 -53582,26987 -80566,26987 -39892,0 -71875,-17243 -95838,-51870 -24096,-34618 -36071,-81088 -36071,-139410 0,-55292 12374,-100306 36994,-135066 24750,-34618 56601,-52003 95705,-52003 27250,0 54101,9609 80564,28962l0 91761c-15141,-8032 -28829,-11987 -40938,-11987 -17909,0 -32517,7245 -43582,21864 -11053,14475 -16586,33828 -16586,58045 0,25407 5400,45426 16197,60167 10920,14610 25540,21985 43971,21985 11321,0 24741,-4088 40150,-11987zm65954 -435082l111904 0 0 234461 1966 0c27385,-38305 59247,-57402 95186,-57402 25673,0 45680,8433 60034,25286 14207,16842 21317,40537 21317,71088l0 269999 -112158 0 0 -216419c0,-13830 -2767,-24750 -8288,-32517 -5532,-7899 -13164,-11719 -23041,-11719 -23306,0 -35016,15796 -35016,47390l0 213265 -111904 0 0 -543431zm484853 188645l0 43582c31850,-37259 64246,-55956 97152,-55956 39626,0 65166,20406 76753,61344 18030,-21317 34751,-36982 50281,-46724 15663,-9744 33837,-14620 54635,-14620 52135,0 78332,36472 78332,109537l0 257623 -112293 0 0 -209443c0,-34227 -11065,-51213 -33171,-51213 -22654,0 -33973,16718 -33973,50423l0 210232 -112160 0 0 -215630c0,-13031 -3033,-23830 -9087,-32384 -6054,-8433 -13818,-12642 -23294,-12642 -10010,0 -18042,4077 -24098,12241 -6054,8300 -9076,19486 -9076,33572l0 214842 -111904 0 0 -354786 111904 0zm616231 354786l0 -46603 -1577 0c-13564,20008 -26730,34760 -39493,44236 -12777,9609 -27653,14342 -44893,14342 -33707,0 -60556,-17240 -80699,-51735 -20008,-34362 -30017,-81221 -30017,-140333 0,-56869 10133,-102151 30406,-135723 20408,-33705 47136,-50558 80310,-50558 17641,0 32782,4356 45026,13299 12365,8822 25272,23041 38571,42659l1577 0 0 -44371 112293 0 0 354786 -111503 0zm0 -179304c0,-58968 -14354,-88328 -43183,-88328 -29095,0 -43570,29360 -43570,88328 0,61225 15009,91764 45149,91764 27783,0 41604,-30539 41604,-91764zm304360 -175482l0 59380 1444 0c26728,-46347 54900,-69511 84519,-69511 4342,0 10396,790 18163,2367l0 109926c-13688,-2367 -26330,-3422 -37784,-3422 -41203,0 -61733,26584 -61733,79774l0 176271 -111904 0 0 -354786 107294 0zm164550 -188645l111904 0 0 315157 1966 0 76352 -126512 134157 0 -113749 158896 116113 195890 -129277 0 -83597 -173115 -1966 0 0 173115 -111904 0 0 -543431z"/>
    <path class="fil9" d="M3318765 1593610l109139 0c75565,0 133088,21452 172449,64635 39237,43048 58979,105971 58979,188778 0,62667 -9744,113348 -29097,151919 -19486,38571 -46603,66478 -81351,83720 -34883,17252 -73454,25806 -115582,25806l-114536 0 0 -514858zm116903 109526l0 295406c35417,-3021 60556,-15663 75166,-37648 14620,-21985 21985,-58190 21985,-108471 0,-29884 -2635,-55159 -7766,-75833 -5132,-20662 -12765,-36593 -22908,-47779 -10131,-11200 -20008,-18042 -29749,-20676 -9611,-2632 -21853,-4209 -36728,-4999zm423495 38173c51215,0 90052,16986 116903,51080 26719,34094 40015,81486 40015,142175 0,59380 -13818,105316 -41592,137833 -27783,32517 -66221,48837 -115326,48837 -47125,0 -84384,-16586 -112025,-49759 -27650,-33171 -41471,-78854 -41471,-136911 0,-60689 13166,-108082 39493,-142175 26330,-34094 64379,-51080 114003,-51080zm790 279619c14620,0 25673,-6844 32917,-20408 7366,-13685 11053,-36994 11053,-69900 0,-32649 -3688,-55424 -10799,-68588 -7231,-13164 -18030,-19751 -32382,-19751 -14210,0 -25009,6455 -32384,19097 -7498,12763 -11188,36060 -11188,70032 0,59634 14221,89518 42783,89518zm236038 -361763l112170 0 0 94517 43572 0 0 93341 -44371 0 0 261445 -111371 0 0 -262235 -42515 0 0 -92551 42515 0 0 -94517zm225253 -65555l117956 0 148497 296983 -4221 -55546 0 -241438 116903 0 0 514858 -119924 0 -145464 -292385 3154 64111 0 228274 -116901 0 0 -514858zm644135 406509l94529 0c-18042,79655 -63067,119538 -135066,119538 -45026,0 -80575,-17110 -106772,-51336 -26327,-34096 -39361,-81365 -39361,-141521 0,-56081 13033,-100972 39361,-134800 26197,-33840 61090,-50691 104527,-50691 26197,0 51348,8165 75565,24485 24098,16329 41727,38049 52792,65033 11053,26996 17243,69511 18563,127567l-187068 0c1577,52790 16185,79120 43971,79120 9476,0 18030,-3422 25407,-10399 7498,-6977 11976,-15931 13553,-26996zm-81353 -102682l81353 0c-790,-24874 -4212,-43304 -10399,-55292 -6187,-11976 -15931,-17895 -29351,-17895 -14873,0 -25540,5786 -31995,17373 -6453,11587 -9609,30152 -9609,55813zm265000 -238272l112170 0 0 94517 43572 0 0 93341 -44371 0 0 261445 -111371 0 0 -262235 -42515 0 0 -92551 42515 0 0 -94517z"/>
   </g>
   <path class="fil9" d="M1223 2245556l70454 0c18964,0 34238,5521 45869,16609 11622,11032 17410,25608 17410,43670 0,11831 -2844,23085 -8521,33751 -5677,10608 -14254,18596 -25773,23840 -11466,5199 -21263,7932 -29419,8144l-25661 643 0 79408 -44360 0 0 -206065zm43714 37294l0 52713 17042 0c7342,0 13609,-2677 18864,-7976 5197,-5367 7820,-11687 7820,-19020 0,-8365 -2944,-14841 -8843,-19451 -5889,-4610 -14254,-6911 -25130,-6911l-9753 645zm101738 101638c0,-20797 6644,-37828 19875,-51012 13287,-13178 30271,-19765 51068,-19765 19285,0 35517,6688 48592,20143 13131,13453 19663,30117 19663,50046 0,20308 -6532,37127 -19663,50526 -13075,13397 -29516,20084 -49235,20084 -22242,0 -39493,-7065 -51814,-21263 -12320,-14196 -18486,-30439 -18486,-48758zm99661 -56c0,-9108 -2954,-17096 -8898,-23895 -5942,-6809 -12854,-10175 -20786,-10175 -8197,0 -15274,3210 -21219,9586 -5942,6378 -8898,13986 -8898,22931 0,9697 2956,18007 8843,24806 5845,6809 12966,10187 21275,10187 7932,0 14843,-3333 20786,-9977 5945,-6641 8898,-14464 8898,-23462zm52536 -67833l42382 0 36228 80054 32139 -80054 26039 0 31830 79411 36116 -79411 42170 0 -61399 135022 -31939 0 -29628 -73941 -29684 73941 -33162 0 -61090 -135022zm395945 77154l-96118 0c533,8677 3366,15698 8565,21109 5143,5421 11198,8153 18109,8153 12330,0 22030,-5577 29050,-16718l36859 12265c-13718,23951 -34993,35948 -63866,35948 -21275,0 -38149,-6420 -50691,-19285 -12586,-12907 -18852,-30215 -18852,-51968 0,-19565 6588,-36006 19819,-49293 13231,-13285 29516,-19928 48869,-19928 19442,0 35738,6965 48758,20939 13022,13988 19497,31406 19497,52347l0 6432zm-96118 -27005l54646 0c-3799,-16930 -12486,-25396 -26041,-25396 -7820,0 -14252,2199 -19395,6644 -5090,4398 -8144,10664 -9211,18752zm162861 -50148l0 19931 645 0c3967,-6699 8621,-12053 13930,-15964 5244,-3911 10177,-5898 14675,-5898 2735,0 5199,221 7401,643l0 44047c-3378,-643 -6644,-964 -9909,-964 -8256,0 -14687,2886 -19241,8731 -4556,5789 -6856,13930 -6856,24385l0 60111 -40826 0 0 -135022 40181 0zm137155 -69443l0 38583c-6054,-4077 -11309,-6110 -15696,-6110 -5677,0 -10233,2034 -13776,6110 -3478,4077 -5244,9320 -5244,15808l0 15053 34716 0 0 36649 -34716 0 0 98372 -40195 0 0 -98372 -11885 0 0 -36649 11885 0 0 -16497c0,-22940 4822,-38427 14522,-46570 9697,-8085 21063,-12153 34138,-12153 10287,0 19073,1922 26251,5777zm26241 69443l40826 0 0 64945c0,9376 2367,17142 7077,23409 4766,6264 10608,9376 17520,9376 7398,0 13609,-3000 18652,-9055 5032,-6054 7554,-13665 7554,-22775l0 -65900 40826 0 0 78710c0,16721 -6320,30707 -19018,41949 -12698,11309 -28452,16942 -47372,16942 -20040,0 -36060,-5689 -48059,-16986 -11997,-11365 -18007,-26418 -18007,-45226l0 -75388zm172782 -74586l40183 0 0 209608 -40183 0 0 -209608zm164794 187157c0,-6909 2467,-12810 7342,-17729 4922,-4934 10820,-7398 17732,-7398 6909,0 12810,2465 17729,7398 4878,4920 7345,10820 7345,17729 0,6865 -2467,12698 -7345,17632 -4920,4931 -10820,7398 -17729,7398 -6911,0 -12810,-2467 -17732,-7398 -4876,-4934 -7342,-10767 -7342,-17632zm224540 -183614l43393 0 0 206065 -42971 0 -94617 -133410 0 133410 -44369 0 0 -206065 43838 0 94727 132445 0 -132445zm85386 0l116060 0 0 40828 -71700 0 0 41469 71700 0 0 40183 -71700 0 0 42759 71700 0 0 40826 -116060 0 0 -206065zm139722 0l138553 0 0 43714 -47257 0 0 162351 -44360 0 0 -162351 -46936 0 0 -43714zm253891 -3543l40181 0 0 209608 -40181 0 0 -209608zm78586 24650c0,-6809 2467,-12642 7342,-17573 4922,-4934 10820,-7398 17732,-7398 6909,0 12807,2465 17741,7398 4866,4931 7333,10764 7333,17573 0,6967 -2467,12866 -7333,17788 -4934,4931 -10832,7398 -17741,7398 -6911,0 -12810,-2467 -17732,-7398 -4876,-4922 -7342,-10820 -7342,-17788zm5143 49936l40183 0 0 135022 -40183 0 0 -135022zm81798 -74586l39871 0 0 92917c11943,-13930 25605,-20895 40926,-20895 16185,0 30173,6965 41960,20895 11843,13876 17729,30639 17729,50204 0,18528 -5789,34660 -17408,48436 -11631,13765 -25130,20630 -40504,20630 -7776,0 -14897,-1933 -21440,-5845 -6532,-3855 -13609,-10075 -21263,-18596l0 21862 -39871 0 0 -209608zm69122 112202c-7988,0 -14631,2833 -19931,8521 -5355,5733 -8044,13387 -8044,22985 0,9211 2788,16821 8421,22819 5621,5998 12642,9010 21107,9010 7766,0 14198,-2956 19341,-8843 5143,-5900 7710,-13343 7710,-22342 0,-8787 -2777,-16341 -8409,-22675 -5621,-6320 -12320,-9476 -20196,-9476zm139988 -37616l0 19931 643 0c3967,-6699 8621,-12053 13932,-15964 5244,-3911 10175,-5898 14675,-5898 2732,0 5197,221 7398,643l0 44047c-3378,-643 -6644,-964 -9909,-964 -8256,0 -14687,2886 -19241,8731 -4556,5789 -6856,13930 -6856,24385l0 60111 -40826 0 0 -135022 40183 0zm155106 135022l0 -23150 -643 0c-6266,9064 -12532,15598 -18908,19674 -6378,4009 -14254,6054 -23630,6054 -15754,0 -29151,-6811 -40183,-20420 -11097,-13609 -16618,-30117 -16618,-49612 0,-19241 5898,-35738 17685,-49515 11787,-13765 25773,-20618 41949,-20618 7720,0 14631,1710 20797,5088 6154,3378 12698,8731 19551,16120l0 -18643 40183 0 0 135022 -40183 0zm-29416 -97406c-7932,0 -14519,3156 -19819,9476 -5311,6334 -7988,14310 -7988,23907 0,8999 2520,16232 7554,21696 5088,5523 11731,8256 19928,8256 7934,0 14743,-3166 20364,-9488 5621,-6322 8409,-13986 8409,-22985 0,-8365 -2788,-15598 -8409,-21696 -5621,-6110 -12320,-9166 -20040,-9166zm148185 -37616l0 19931 645 0c3965,-6699 8621,-12053 13930,-15964 5244,-3911 10177,-5898 14675,-5898 2732,0 5199,221 7398,643l0 44047c-3378,-643 -6644,-964 -9909,-964 -8253,0 -14685,2886 -19241,8731 -4554,5789 -6853,13930 -6853,24385l0 60111 -40828 0 0 -135022 40183 0zm58068 0l42871 0 38736 78866 34185 -78866 41415 0 -83909 194502 -41793 0 30061 -69289 -61567 -125212zm341932 -69443l0 38583c-6054,-4077 -11309,-6110 -15698,-6110 -5677,0 -10231,2034 -13774,6110 -3478,4077 -5244,9320 -5244,15808l0 15053 34716 0 0 36649 -34716 0 0 98372 -40195 0 0 -98372 -11887 0 0 -36649 11887 0 0 -16497c0,-22940 4822,-38427 14519,-46570 9700,-8085 21063,-12153 34140,-12153 10287,0 19073,1922 26251,5777zm19863 137332c0,-20797 6644,-37828 19875,-51012 13287,-13178 30271,-19765 51068,-19765 19285,0 35517,6688 48592,20143 13131,13453 19663,30117 19663,50046 0,20308 -6532,37127 -19663,50526 -13075,13397 -29516,20084 -49237,20084 -22239,0 -39493,-7065 -51811,-21263 -12320,-14196 -18486,-30439 -18486,-48758zm99661 -56c0,-9108 -2954,-17096 -8898,-23895 -5942,-6809 -12854,-10175 -20786,-10175 -8197,0 -15274,3210 -21219,9586 -5942,6378 -8898,13986 -8898,22931 0,9697 2956,18007 8843,24806 5845,6809 12966,10187 21275,10187 7932,0 14843,-3333 20786,-9977 5945,-6641 8898,-14464 8898,-23462zm112659 -67833l0 19931 645 0c3965,-6699 8619,-12053 13930,-15964 5244,-3911 10177,-5898 14675,-5898 2732,0 5199,221 7398,643l0 44047c-3378,-643 -6644,-964 -9909,-964 -8253,0 -14685,2886 -19241,8731 -4554,5789 -6853,13930 -6853,24385l0 60111 -40828 0 0 -135022 40183 0zm148132 -74586l39871 0 0 92917c11943,-13930 25608,-20895 40926,-20895 16187,0 30173,6965 41960,20895 11843,13876 17729,30639 17729,50204 0,18528 -5786,34660 -17408,48436 -11631,13765 -25130,20630 -40504,20630 -7776,0 -14897,-1933 -21440,-5845 -6532,-3855 -13609,-10075 -21263,-18596l0 21862 -39871 0 0 -209608zm69122 112202c-7988,0 -14631,2833 -19931,8521 -5355,5733 -8044,13387 -8044,22985 0,9211 2788,16821 8421,22819 5621,5998 12642,9010 21107,9010 7766,0 14198,-2956 19341,-8843 5143,-5900 7710,-13343 7710,-22342 0,-8787 -2777,-16341 -8409,-22675 -5621,-6320 -12320,-9476 -20196,-9476zm227428 39538l-96118 0c533,8677 3366,15698 8565,21109 5143,5421 11198,8153 18109,8153 12330,0 22030,-5577 29050,-16718l36859 12265c-13718,23951 -34993,35948 -63866,35948 -21275,0 -38149,-6420 -50691,-19285 -12588,-12907 -18852,-30215 -18852,-51968 0,-19565 6588,-36006 19819,-49293 13231,-13285 29516,-19928 48869,-19928 19442,0 35738,6965 48758,20939 13022,13988 19497,31406 19497,52347l0 6432zm-96118 -27005l54646 0c-3799,-16930 -12486,-25396 -26041,-25396 -7820,0 -14252,2199 -19395,6644 -5090,4398 -8144,10664 -9211,18752zm168004 -50148l0 16020c13720,-12807 28130,-19230 43183,-19230 12863,0 23530,5299 31939,15854 8409,10552 12642,24061 12642,40458l0 81920 -40826 0 0 -75542c0,-7776 -2145,-14310 -6378,-19663 -4233,-5311 -9376,-7988 -15430,-7988 -7342,0 -13343,3375 -18053,10119 -4719,6755 -7077,15486 -7077,26153l0 66920 -40181 0 0 -135022 40181 0zm225497 88409l0 40181c-13821,6222 -25286,9320 -34394,9320 -20364,0 -37294,-6688 -50959,-20084 -13609,-13399 -20408,-30173 -20408,-50258 0,-20152 6322,-36917 18908,-50204 12598,-13285 28564,-19928 47959,-19928 13499,0 26574,3098 39216,9320l0 37926c-11675,-5565 -22395,-8353 -32095,-8353 -8999,0 -16229,2732 -21696,8256 -5521,5465 -8253,12751 -8253,21696 0,8898 2732,16129 8144,21596 5465,5521 12654,8253 21540,8253 8044,0 18752,-2576 32039,-7720zm35193 -162996l40826 0 0 90340c7289,-6322 14088,-10876 20364,-13720 6210,-2833 13499,-4289 21696,-4289 14086,0 25130,5099 33118,15332 7976,10175 11941,24373 11941,42480l0 79464 -40826 0 0 -72387c0,-8731 -2199,-16020 -6588,-21906 -4398,-5956 -9753,-8898 -16185,-8898 -8144,0 -14088,3431 -17897,10231 -3746,6809 -5623,17420 -5623,31883l0 61078 -40826 0 0 -209608zm210388 74586l0 21219c1878,-1232 4666,-3587 8309,-7130 3643,-3478 7121,-6422 10552,-8889 3378,-2411 7445,-4342 12167,-5842 4764,-1500 9052,-2246 12907,-2246 6166,0 12810,2190 19987,6534 7231,4386 13175,12164 17997,23306 8365,-10720 16562,-18375 24538,-22985 8044,-4554 15486,-6856 22398,-6856 12220,0 22619,5034 31084,15165 8465,10066 12698,22495 12698,37227l0 85519 -40183 0 0 -74631c0,-7454 -2043,-13665 -6110,-18708 -4077,-5088 -9010,-7610 -14787,-7610 -6865,0 -12863,2900 -17841,8633 -5043,5730 -7564,12542 -7564,20462l0 71854 -39861 0 0 -72974c0,-7878 -2034,-14522 -6154,-19875 -4077,-5411 -9064,-8099 -14897,-8099 -6865,0 -12754,2956 -17741,8898 -4978,5898 -7498,12966 -7498,21275l0 70775 -40828 0 0 -135022 40828 0zm301425 135022l0 -23150 -643 0c-6266,9064 -12532,15598 -18908,19674 -6378,4009 -14254,6054 -23630,6054 -15752,0 -29151,-6811 -40183,-20420 -11097,-13609 -16618,-30117 -16618,-49612 0,-19241 5898,-35738 17685,-49515 11787,-13765 25773,-20618 41949,-20618 7722,0 14631,1710 20797,5088 6154,3378 12698,8731 19551,16120l0 -18643 40183 0 0 135022 -40183 0zm-29416 -97406c-7932,0 -14519,3156 -19819,9476 -5311,6334 -7988,14310 -7988,23907 0,8999 2523,16232 7554,21696 5088,5523 11731,8256 19931,8256 7932,0 14741,-3166 20362,-9488 5621,-6322 8409,-13986 8409,-22985 0,-8365 -2788,-15598 -8409,-21696 -5621,-6110 -12320,-9166 -20040,-9166zm148185 -37616l0 19931 645 0c3967,-6699 8621,-12053 13930,-15964 5244,-3911 10177,-5898 14675,-5898 2732,0 5199,221 7398,643l0 44047c-3375,-643 -6641,-964 -9909,-964 -8253,0 -14685,2886 -19241,8731 -4554,5789 -6853,13930 -6853,24385l0 60111 -40826 0 0 -135022 40181 0zm64780 -74586l39859 0 0 127467 39705 -52881 48380 0 -44793 59636 48648 75385 -45538 0 -46403 -71309 0 71309 -39859 0 0 -209608zm151929 24650c0,-6809 2467,-12642 7345,-17573 4920,-4934 10820,-7398 17729,-7398 6909,0 12810,2465 17741,7398 4866,4931 7333,10764 7333,17573 0,6967 -2467,12866 -7333,17788 -4931,4931 -10832,7398 -17741,7398 -6909,0 -12810,-2467 -17729,-7398 -4878,-4922 -7345,-10820 -7345,-17788zm5143 49936l40183 0 0 135022 -40183 0 0 -135022zm125203 0l0 16020c13718,-12807 28128,-19230 43181,-19230 12866,0 23530,5299 31939,15854 8409,10552 12642,24061 12642,40458l0 81920 -40826 0 0 -75542c0,-7776 -2143,-14310 -6376,-19663 -4233,-5311 -9378,-7988 -15433,-7988 -7342,0 -13341,3375 -18051,10119 -4722,6755 -7077,15486 -7077,26153l0 66920 -40183 0 0 -135022 40183 0zm217463 127414l0 -15854c-12053,15209 -25929,22819 -41737,22819 -16986,0 -31128,-6532 -42494,-19609 -11354,-13075 -17031,-29472 -17031,-49135 0,-19020 5889,-35193 17676,-48536 11731,-13343 25929,-19987 42435,-19987 14042,0 27753,7177 41150,21531l0 -18643 39859 0 0 136846c0,7554 -2355,16229 -7121,26039 -4766,9809 -12919,17042 -24329,21696 -11466,4666 -24750,7021 -39803,7021 -18754,0 -33707,-3476 -44961,-10496 -11254,-7023 -19341,-19076 -24273,-36118l45070 0c8787,12220 18319,18330 28550,18330 7988,0 14466,-3322 19453,-9975 5032,-6644 7554,-15265 7554,-25929zm-58513 -60656c0,6921 3000,13618 9010,20208 5998,6532 13019,9798 21051,9798 7822,0 14522,-3100 20098,-9376 5565,-6210 8353,-13821 8353,-22819 0,-9276 -2677,-16830 -7988,-22829 -5299,-5945 -12153,-8943 -20464,-8943 -8465,0 -15596,3098 -21373,9376 -5789,6210 -8689,14408 -8689,24585z"/>
  </g>
 </g>
</svg>
